<?xml version="1.0" encoding="UTF-8"?>
<svg width="170.4413" height="170.4413" data-name="Layer 2" xmlns="http://www.w3.org/2000/svg" xmlns:xlink="http://www.w3.org/1999/xlink" viewBox="0 0 170.4413 170.4413">
  <defs>
    <linearGradient id="h" x1="13183.3938" y1="-6586.4172" x2="13183.3938" y2="-15677.9269" gradientTransform="translate(-814.3617 -411.2842) scale(.0682 -.0682)" gradientUnits="userSpaceOnUse">
      <stop offset="0" stop-color="#fff"/>
      <stop offset="1" stop-color="#fff" stop-opacity=".5569"/>
    </linearGradient>
    <mask id="f" data-name="mask" x="27.5742" y="27.5735" width="115.2929" height="115.2936" maskUnits="userSpaceOnUse">
      <g id="g" data-name="id0">
        <rect x="27.5742" y="27.5735" width="115.2929" height="115.2936" style="fill: url(#h); stroke-width: 0px;"/>
      </g>
    </mask>
    <radialGradient id="i" cx="6451.6733" cy="-4486.2986" fx="6451.6733" fy="-4486.2986" r="840.66" gradientTransform="translate(-839.8778 -509.4616) scale(.143 -.143)" gradientUnits="userSpaceOnUse">
      <stop offset="0" stop-color="#fefcfd"/>
      <stop offset=".2392" stop-color="#e5eaec"/>
      <stop offset="1" stop-color="#1a5877"/>
    </radialGradient>
    <linearGradient id="l" x1="13018.8169" y1="-7145.2675" x2="13838.5269" y2="-6786.6475" gradientTransform="translate(-814.3617 -411.2842) scale(.0682 -.0682)" gradientUnits="userSpaceOnUse">
      <stop offset="0" stop-color="#fff"/>
      <stop offset="1" stop-color="#fff"/>
    </linearGradient>
    <mask id="j" data-name="mask-1" x="33.1184" y="52.5001" width="101.3203" height="38.9962" maskUnits="userSpaceOnUse">
      <g id="k" data-name="id2">
        <rect x="33.1184" y="52.5001" width="101.3203" height="38.9962" style="fill: url(#l); stroke-width: 0px;"/>
      </g>
    </mask>
    <linearGradient id="m" x1="12281.508" y1="-7262.8575" x2="13664.438" y2="-7015.6175" gradientTransform="translate(-814.3617 -411.2842) scale(.0682 -.0682)" gradientUnits="userSpaceOnUse">
      <stop offset="0" stop-color="#23446d"/>
      <stop offset=".8706" stop-color="#f4f4f6"/>
      <stop offset="1" stop-color="#fff"/>
    </linearGradient>
    <radialGradient id="n" cx="7538.9514" cy="-3530.7149" fx="7538.9514" fy="-3530.7149" r="75.75" gradientTransform="translate(-866.0129 -414.19) scale(.1303 -.1303)" gradientUnits="userSpaceOnUse">
      <stop offset="0" stop-color="#fff"/>
      <stop offset=".3686" stop-color="#91a1b6"/>
      <stop offset="1" stop-color="#23446d"/>
    </radialGradient>
  </defs>
  <g id="c" data-name="Layer 1">
    <g id="d" data-name="图层_1">
      <g id="e" data-name=" 105553232937920">
        <path d="m85.2207,0c47.0583,0,85.2207,38.1624,85.2207,85.2207s-38.1624,85.2207-85.2207,85.2207S0,132.2789,0,85.2207,38.1624,0,85.2207,0Z" style="fill: #23446d; fill-rule: evenodd; stroke-width: 0px;"/>
        <path d="m85.2207,9.0454c42.0634,0,76.1753,34.1119,76.1753,76.1753s-34.1119,76.1746-76.1753,76.1746S9.0461,127.2834,9.0461,85.2207,43.1579,9.0454,85.2207,9.0454Z" style="fill: #fff; fill-rule: evenodd; stroke: #332d2b; stroke-miterlimit: 1.5644; stroke-width: .2163px;"/>
        <path d="m85.2207,8.0935c42.5895,0,77.1272,34.5383,77.1272,77.1272s-34.5383,77.1272-77.1272,77.1272S8.0935,127.8095,8.0935,85.2206,42.6318,8.0935,85.2207,8.0935Z" style="fill: #fff; fill-rule: evenodd; stroke-width: 0px;"/>
        <path d="m85.2207,3.332c45.218,0,81.888,36.6707,81.888,81.888s-36.67,81.888-81.888,81.888S3.3327,130.4372,3.3327,85.22,40.0034,3.332,85.2207,3.332h0Z" style="fill: #fff; fill-rule: evenodd; stroke-width: 0px;"/>
        <path d="m85.2207,26.1849c32.5991,0,59.0358,26.4367,59.0358,59.0358s-26.4367,59.0351-59.0358,59.0351-59.0358-26.4367-59.0358-59.0351,26.4367-59.0358,59.0358-59.0358Z" style="fill: none; stroke-width: 0px;"/>
        <g style="mask: url(#f);">
          <path d="m85.2207,142.584c-31.6806,0-57.3633-25.6827-57.3633-57.3633s25.6827-57.3633,57.3633-57.3633,57.3633,25.6827,57.3633,57.3633-25.6827,57.3633-57.3633,57.3633Z" style="fill: url(#i); fill-rule: evenodd; stroke-width: 0px;"/>
        </g>
        <path d="m60.365,129.4854l-.2211-76.3588,17.9079-9.4753,1.2255-2.1474,3.6158-.0061.0041,24.1658,10.2504-.0061-.0177-7.7045,19.9993-4.3432.0089,47.4063c-.0157,3.4384-1.9904,11.8744-11.2091,13.2228-5.0713-.7172-5.6261-1.1225-8.3248-2.1522-1.1914-.4545-.8195-2.1658-1.1778-3.0297-.8823-2.1242-1.1737-4.7021-.2934-6.784-.1658,1.7659,1.6459,6.3651,5.9986,5.5694,5.7427-1.5312,5.8512-10.1371-.5588-12.2142-3.6745-1.1907-6.9123-.7485-10.4463.5602-10.9253,4.0484-17.7216,17.2303-24.945,29.8355l-1.8164,3.4602v.0014Z" style="fill: #fff; fill-rule: evenodd; stroke-width: 0px;"/>
        <polygon points="88.7478 100.1746 92.2162 102.1862 92.2708 105.3544 89.0357 104.3049 88.7478 100.1746" style="fill: #fff; fill-rule: evenodd; stroke-width: 0px;"/>
        <polygon points="109.5222 52.0859 113.1278 52.0818 113.1285 53.7256 113.1374 66.1234 109.6635 66.1234 109.5222 52.0859" style="fill: #fff; fill-rule: evenodd; stroke-width: 0px;"/>
        <polygon points="56.6461 116.3213 60.4865 116.3213 60.365 129.4854 56.5274 129.5761 56.6461 116.3213" style="fill: #fff; fill-rule: evenodd; stroke-width: 0px;"/>
        <path d="m56.5281,129.5768V50.9935l22.7492-9.4896.0041,22.2784,10.2504-.9799-.0177-7.985,20.0082-2.7315v46.9819c-.0157,3.4384-1.0836,13.0467-11.1689,13.624-7.8881.5623-9.828-5.4794-10.2688-7.6295-.1583-1.1655-.0983-2.3228.1324-3.3606.1221-.6155.3084-1.1436.5404-1.5408-.0498,1.3204.3166,2.2361.6203,2.7758.288.5943.825,1.2303,1.5285,1.7769.7499.5821,1.7277.9942,3.1327.9792,6.3473-.0669,8.7485-10.2115,1.7182-13.5496-2.6182-.9314-6.5111-.8325-11.9693,1.1409-12.275,4.9417-19.7632,22.9007-25.6615,33.3729l-1.5981,2.9191v.0007Z" style="fill: #23446d; fill-rule: evenodd; stroke-width: 0px;"/>
        <path d="m54.8822,86.2135c-11.0508-.5022-13.7236-3.0501-12.4033-6.5629,1.0993-2.9266,3.203-5.0181,9.712-10.043-14.9723,6.0157-16.9921,11.9884-15.5121,16.3801,1.117,3.044,5.2317,3.4029,10.0696,3.4882,1.0795.0191,1.9236.0457,2.9103.0246,1.1443-.5848,6.9451-3.2078,5.2235-3.2862v-.0007Z" style="fill: #fff; fill-rule: evenodd; stroke-width: 0px;"/>
        <g style="mask: url(#j);">
          <path d="m52.1569,69.6212c-14.4108,5.2555-20.1337,12.4872-18.7226,16.6939,1.0652,2.9171,4.2156,4.6482,8.767,4.943,4.4292.2866,8.2675.1051,13.3668-.6053,8.1406-1.1334,17.2289-3.6943,28.101-7.3292,23.5401-7.8717,34.6878-16.5493,34.9942-16.7403,3.2153-2.0061,12.4237-8.1528,15.6636-12.0321.0751-.1761-.8987-2.146-1.1477-1.9256-.5002.4429-1.7987,1.3129-2.2934,1.7209-4.7827,3.9481-9.1436,6.5288-14.2709,9.7264-13.7878,8.5991-33.0733,16.1214-51.5578,20.4224-6.4012,1.4896-13.1204,2.7922-20.3398,1.5544-3.5606-.61-6.1958-2.7888-4.9369-6.1201.6987-1.8506,3.3013-4.4237,5.8676-6.0723,3.97-2.5507,6.509-4.2361,6.509-4.2361Z" style="fill: url(#m); fill-rule: evenodd; stroke-width: 0px;"/>
        </g>
        <path d="m74.5431,132.8658h-1.5667v-5.4521c-.2293.1979-.4749.3746-.737.5288h0c-.3234.1904-.6708.3473-1.0406.4701l-.1242.0409v-1.5435l.0655-.0212c.187-.0607.3821-.1494.5848-.2654.204-.1167.4169-.262.638-.4353v-.0007c.2184-.1699.4026-.3541.5513-.5513.1494-.1979.2648-.4094.3453-.6339l.0232-.0628h1.3545v7.9249h-.0942v.0014Zm4.3378-1.9754l1.4295-.1576.0935-.0102.0102.0935c.0157.1365.045.2552.0867.3548.0403.0962.0928.176.1556.2361v.0007c.0628.0607.1358.1071.219.1372h0c.0853.0314.1829.0471.2914.0471.1351,0,.26-.0314.3739-.0942.116-.0635.2231-.161.3214-.2914.0969-.129.1781-.3344.2429-.6128.0525-.2279.0935-.5029.1228-.8257-.1453.1324-.3023.2375-.4715.3159-.2443.1126-.5125.1699-.8038.1699-.3153,0-.61-.0614-.8837-.1836-.2716-.1215-.522-.3036-.7499-.5466-.2279-.2422-.3992-.5227-.5131-.8386-.1133-.3146-.1699-.6646-.1699-1.0488,0-.4005.06-.7642.1795-1.089.1201-.3269.3009-.6141.5425-.8618.2409-.2484.5159-.4347.8229-.5588.3064-.1242.6455-.1863,1.0154-.1863.4033,0,.7718.0785,1.1047.2361.3323.1569.6291.3924.8878.7042v.0007c.2586.3132.4531.726.5814,1.2364.1269.5049.1911,1.1082.1911,1.8083,0,.7117-.0662,1.3258-.1979,1.8417-.1331.5213-.3344.9437-.6032,1.2665-.2688.3234-.5793.5664-.9301.7281s-.7431.2429-1.173.2429c-.3091,0-.5902-.0423-.8427-.1262-.2545-.0846-.4797-.2115-.6735-.3808-.1938-.1685-.3535-.3794-.4777-.6319-.1221-.2484-.2108-.5384-.2641-.868l-.0157-.0983.0983-.0102-.0007.0007Zm3.2364-3.1334c0-.2286-.0259-.4306-.0785-.6059-.0505-.1713-.1269-.318-.2272-.4381h0c-.1003-.1208-.2081-.2108-.3228-.2702-.1119-.0587-.2327-.0873-.3603-.0873-.1221,0-.2327.0239-.333.0717-.1003.0478-.1917.1208-.2716.2163h-.0007c-.0805.0962-.1426.2259-.1836.3869-.043.1665-.0641.3692-.0641.6053,0,.2395.0232.4463.0703.6196.045.1685.1133.3064.2013.4121.0887.1051.1883.1842.2975.2354.1085.0519.23.0778.363.0778.1276,0,.245-.0252.3507-.0744.1071-.0505.2047-.1262.2927-.2279.0873-.101.1535-.2279.1979-.3787.045-.1549.0689-.3357.0689-.5432l-.0007.0007Zm4.7984,2.9458l1.4718-.1522.0914-.0096.0116.0914c.0198.1563.0594.2968.1174.4203.0566.1208.1324.2272.2265.3159.0948.0887.1972.1563.3057.2006.1078.0437.2231.0655.3466.0655.1406,0,.2695-.0287.3862-.0846.118-.0566.2265-.144.3241-.26.0969-.1153.172-.2627.2218-.4388.0505-.1808.0764-.3937.0764-.6387,0-.2293-.0252-.4292-.0757-.5984-.0484-.1645-.1221-.3016-.219-.4101h0c-.0955-.1078-.2068-.1897-.3316-.2429h0c-.1256-.0539-.2675-.0812-.4244-.0812-.1979,0-.3862.0437-.5629.1297-.1795.088-.3501.2211-.5097.3971l-.0341.0375-.0491-.0068-1.1928-.172-.0976-.0143.0184-.0969.7526-3.9973.015-.0771h4.0723v1.5647h-2.7963l-.1876,1.0549c.1167-.0484.2341-.0867.3528-.1153.176-.0423.3535-.0641.5316-.0641.3405,0,.6557.0621.9451.187.2893.1242.552.3105.7888.5588.2368.2477.4156.5329.5336.8543.1174.32.1767.6769.1767,1.0693,0,.3282-.0478.6387-.1433.9307-.0948.2927-.2381.5684-.4272.8263-.5206.7062-1.2412,1.0597-2.1604,1.0597-.3651,0-.6987-.0498-.9969-.1481-.3009-.0989-.5691-.2491-.8031-.4476h0c-.2347-.1993-.421-.4333-.5602-.7001h.0007c-.1392-.2661-.2313-.567-.2764-.9l-.013-.0962.0969-.0102-.0027-.0014Zm13.0611-3.6465l-1.4289.1576-.0935.0102-.0109-.0935c-.0157-.1372-.045-.2573-.0873-.3569-.0396-.0962-.0928-.1747-.1563-.2354-.0635-.06-.1378-.1065-.2204-.1372-.0839-.0307-.1795-.0464-.2859-.0464-.1406,0-.2695.0314-.3869.0935h-.0007c-.1187.0635-.2293.1597-.3282.288-.0989.129-.1808.3316-.245.61-.0525.2265-.0921.5015-.1208.8229.1426-.1324.2975-.2381.4633-.3166.2402-.114.5043-.172.7909-.172.32,0,.6189.0621.8953.1842h.0007c.275.1221.5261.3057.754.5493h0c.2279.2443.3992.5247.5125.8393.1133.3139.1699.6626.1699,1.044,0,.8127-.2402,1.4691-.7206,1.9638-.2402.2477-.5152.434-.8236.5575-.3077.1242-.6489.1856-1.0222.1856-.8045,0-1.4684-.3146-1.987-.9423-.2586-.3132-.4531-.7253-.5814-1.2344-.1269-.5036-.1911-1.1034-.1911-1.8001,0-.7137.0669-1.3299.1993-1.8471h0c.1337-.5227.3357-.9464.6059-1.2699.2695-.3228.58-.5664.9314-.7274.3507-.1617.7424-.2429,1.1716-.2429.3016,0,.5786.043.8304.129.2532.086.4811.2163.681.3883.2006.1713.3651.3821.4927.6325.1262.2477.2177.5336.2716.8564l.0171.0983-.0989.0116h.002Zm-3.2576,3.1266c0,.2306.0266.434.0785.61h0c.0519.174.129.3214.23.4415.1017.1208.2102.2108.3248.2709h.0007c.1119.058.2313.0873.3582.0873.1221,0,.2341-.0239.3344-.071.101-.0478.1938-.1201.2764-.2163h0c.0805-.0962.1426-.2265.1842-.3876h0c.043-.1665.0648-.3685.0648-.6046,0-.2422-.0232-.451-.0703-.6264-.045-.1706-.1126-.3098-.2013-.4156-.0894-.1058-.1897-.1856-.2996-.2375h0c-.1092-.0519-.2306-.0778-.363-.0778-.1283,0-.2463.0246-.3528.0744h-.0007c-.1071.0498-.2061.1262-.2955.2286h0c-.088.1003-.1549.2272-.1999.3787-.0464.1556-.0696.3378-.0696.5459l.0007-.0007Z" style="fill: #23446d; fill-rule: evenodd; stroke-width: 0px;"/>
        <line x1="85.4772" y1="38.9177" x2="112.7723" y2="27.5326" style="fill: none; stroke-width: 0px;"/>
        <path d="m106.4598,39.2848c-.6414-2.7383-1.5183-5.4411-2.6005-8.0368" style="fill: none; stroke-width: 0px;"/>
        <path d="m56.5281,102.279c24.2784,0,45.2391-17.0269,50.2033-40.7929" style="fill: none; stroke-width: 0px;"/>
        <line x1="56.5281" y1="50.9935" x2="76.5656" y2="42.6352" style="fill: none; stroke-width: 0px;"/>
        <polygon points="97.6341 57.7843 98.7566 61.2248 102.3984 60.9361 99.4506 63.3503 100.5738 66.7908 97.6287 64.8433 94.6809 67.2582 95.8088 63.639 92.8645 61.6922 96.5062 61.4035 97.6341 57.7843" style="fill: #fff; fill-rule: evenodd; stroke-width: 0px;"/>
        <polygon points="84.4455 66.2012 85.4301 69.4875 88.8638 69.293 86.0388 71.5182 87.0234 74.8044 84.2926 72.8938 81.467 75.1197 82.6052 71.7126 79.8744 69.8027 83.308 69.6082 84.4455 66.2012" style="fill: #fff; fill-rule: evenodd; stroke-width: 0px;"/>
        <polygon points="74.0143 76.9525 74.7874 80.0108 77.9037 79.9637 75.2657 81.8996 76.0388 84.9579 73.6355 83.0971 70.9975 85.0344 72.15 81.9474 69.7468 80.0866 72.8624 80.0395 74.0143 76.9525" style="fill: #fff; fill-rule: evenodd; stroke-width: 0px;"/>
        <polygon points="66.5615 88.7293 67.2855 91.5939 70.2046 91.5495 67.7331 93.3633 68.4578 96.2278 66.2067 94.4851 63.7359 96.2988 64.8154 93.4076 62.5642 91.6649 65.4827 91.6212 66.5615 88.7293" style="fill: #fff; fill-rule: evenodd; stroke-width: 0px;"/>
        <polygon points="62.38 100.8044 62.9839 103.1606 65.4766 103.1401 63.3571 104.6167 63.961 106.9729 62.0477 105.5297 59.9276 107.0064 60.8645 104.6372 58.9511 103.194 61.4438 103.1736 62.38 100.8044" style="fill: #fff; fill-rule: evenodd; stroke-width: 0px;"/>
        <path d="m10.7683,79.5584l8.3739.2927-.0587,1.6923-3.2951-.1153-.1153,3.3129,3.2951.1153-.0587,1.6902-8.3739-.2927.0594-1.6909,3.6615.1283.1153-3.3129-3.6615-.1276.0587-1.6923h-.0007Zm-.1256,9.2419l8.3582-.5848.4333,6.1965-1.4145.0989-.3153-4.509-1.8533.1297.2934,4.1958-1.407.0989-.2934-4.1958-2.275.159.3262,4.6687-1.4091.0983-.4442-6.3562h.0007Zm.782,8.5438l8.1958-1.7421.3419,1.6104-4.7595,4.5179,5.4725-1.1634.3269,1.538-8.1958,1.7421-.3535-1.6622,4.6428-4.4394-5.3449,1.1361-.3269-1.538.0007.0007Zm4.5438,16.2777l-.5691-1.7516,1.5844-1.2835-1.0351-3.1859-2.0246-.0682-.5548-1.7073,8.9771.5145.5527,1.7011-6.9321,5.781h.0014Zm2.1897-3.9877l2.6005-2.0594-3.3067-.1153.7069,2.174-.0007.0007Zm-1.448,5.5435l7.4657-3.8035.7472,1.4664-3.4282,5.596,4.9853-2.5397.7137,1.4009-7.4657,3.8035-.7711-1.5142,3.3354-5.4896-4.8686,2.4811s-.7137-1.4009-.7138-1.4009Zm13.9584,7.8403l1.0413,1.3327-3.5763,2.7936c-.567.4435-.9232.7485-1.0652.9116-.2259.2682-.3357.5746-.3316.9157.0034.3439.1515.7008.4422,1.0734.2955.378.5957.6039.9014.6749.3043.0723.5848.0382.8393-.0983.2572-.1365.6448-.4101,1.1675-.8181l3.6527-2.8536,1.0413,1.3327-3.4678,2.7096c-.7929.6203-1.3811,1.0215-1.7646,1.2051-.3842.1836-.7622.2661-1.1395.2497-.376-.0184-.7588-.1372-1.1443-.3562-.3869-.2197-.7847-.5923-1.1934-1.1157-.4927-.6298-.7936-1.1648-.9021-1.6049-.1085-.4401-.1201-.8448-.0355-1.2146.0839-.3705.2313-.6865.4394-.9451.3098-.3828.8345-.8618,1.5735-1.4398l3.5223-2.7513-.0007-.0014Zm-.7738,12.2709l6.1283-5.7141,1.1225,1.2044-1.753,6.3241,4.0921-3.8158,1.0727,1.1498-6.1283,5.7141-1.1586-1.2426,1.6936-6.1965-3.9966,3.7264s-1.0727-1.1498-1.0727-1.1498Zm6.5855,6.4449l5.4971-6.3234,1.2767,1.1095-5.4971,6.3234-1.2767-1.1095Zm4.943,3.9243l2.5022-8.5391,1.4855,1.0788-1.9318,6.2627,5.3054-3.811,1.4521,1.0549-7.3524,5.0153-1.4616-1.0618h.0007Zm5.3019,3.5858l4.189-7.2562,5.3797,3.1061-.709,1.2282-3.9147-2.26-.9287,1.6083,3.6424,2.103-.7056,1.2214-3.6424-2.103-1.1402,1.9754,4.0532,2.3398-.7062,1.2235-5.5182-3.1859.0007-.0007Zm7.6226,3.9911l3.1389-7.7687,3.3026,1.3347c.8304.335,1.4043.6489,1.7243.9403s.5227.6612.6039,1.1088c.0812.4497.0293.9021-.1563,1.3613-.2354.5827-.6025.9963-1.0979,1.2378-.4947.2402-1.1054.2729-1.8267.0955.26.3364.4524.6667.5773.9928s.2525.8659.3828,1.6213l.3371,1.8997-1.8758-.7574-.451-2.1494c-.159-.767-.2804-1.2583-.3651-1.4753-.0846-.2177-.1992-.3883-.3412-.5145-.1433-.1256-.3937-.26-.7554-.406l-.3166-.1276-1.3101,3.2433-1.5701-.6346-.0007-.002Zm3.3818-3.8499l1.1593.4688c.7526.3036,1.2358.4633,1.4493.4756.2115.0116.4033-.0396.5725-.1515.1679-.1133.3002-.2845.3944-.5179.1058-.262.1201-.5009.0464-.7178-.0744-.217-.2306-.3985-.4681-.5445-.1201-.0676-.4974-.2313-1.1348-.4879l-1.2228-.494-.7956,1.97-.0007-.0007Zm5.6636,4.4203l1.6274.2982c-.0587.5595.0225,1.0051.2429,1.3381.2197.331.5759.5691,1.0706.7103.5234.1501.9512.1528,1.2794.0061.3296-.1453.537-.3658.6216-.6619.0553-.1911.045-.3685-.0293-.5343-.0716-.1665-.2334-.3384-.4852-.5159-.1699-.1221-.5718-.363-1.2003-.726-.81-.4661-1.3456-.9075-1.6056-1.3224-.3685-.5848-.4613-1.1962-.2784-1.8335.1174-.4108.3432-.7595.6789-1.0515.3344-.29.7479-.4654,1.2392-.5281.492-.0594,1.0461-.002,1.665.1754,1.0126.29,1.7086.7294,2.0942,1.3183.3821.5909.4811,1.2583.2948,2.0068l-1.6459-.3951c.0498-.434-.015-.7759-.1924-1.0208-.1767-.2477-.494-.436-.9519-.567-.4722-.1358-.8714-.146-1.1934-.028-.2081.0744-.3419.2163-.4019.4244-.0553.1911-.0212.3773.1017.5588.1549.2313.6025.5541,1.3402.9669.7376.4142,1.2671.7752,1.5892,1.0829.3207.3091.5397.666.6558,1.0747.114.4081.0983.8666-.0471,1.3743-.1324.4613-.3842.8577-.7561,1.1859-.3726.3296-.8209.5254-1.3456.5862-.5254.0628-1.1382-.0082-1.8376-.2081-1.0188-.2921-1.7332-.7506-2.144-1.3777-.4108-.6271-.5404-1.4077-.3869-2.3378l.0007.0007Zm8.0136,4.7629l1.5988-8.2252,1.6602.3228-1.5988,8.2252-1.6602-.3228Zm5.8895.9055l.6066-6.9348-2.4763-.2163.1235-1.4125,6.6325.58-.1235,1.4125-2.4701-.2163-.6066,6.9342-1.6875-.1474.0014.0006Zm8.2859.3569l-.1228-3.5251-3.2364-4.7417,1.9829-.0696,2.0867,3.2439,1.8144-3.3797,1.9481-.0682-2.9089,4.9676.1228,3.5135-1.6868.0587v.0007Zm10.6168-4.7424c-.1924-.8325-.23-1.5585-.1112-2.1808.0908-.4572.2573-.8898.5022-1.2951.245-.4026.5404-.7294.8857-.9771.4592-.335,1.0201-.5759,1.6854-.7294,1.203-.2784,2.2511-.1276,3.1457.4531.8946.5786,1.4951,1.5326,1.8021,2.8618.3043,1.319.1829,2.4326-.3617,3.3429-.5445.9089-1.4173,1.5026-2.6148,1.7796-1.2146.2805-2.2654.1324-3.1532-.4415-.8878-.5759-1.4807-1.5142-1.7803-2.8127v-.0007Zm1.6847-.4469c.2136.9232.5902,1.5756,1.1259,1.9543.5377.378,1.1348.4906,1.7926.3391.6557-.1515,1.1409-.5118,1.4534-1.0843.3105-.5705.3582-1.3279.1392-2.275-.2156-.9348-.5821-1.5851-1.0972-1.9529-.5165-.3651-1.1157-.4688-1.7939-.3125-.6803.1576-1.1737.5172-1.4828,1.0795-.3071.5616-.3541,1.3108-.1372,2.2518h0Zm9.2494,1.9713l-2.7281-7.9229,5.4323-1.8703.462,1.3408-3.8315,1.319.6455,1.8744,3.3074-1.1389.4613,1.3408-3.3074,1.1389,1.1593,3.3668-1.6015.5514h.0007Zm14.1562-6.0041l-3.4807-6.028-2.1528,1.2426-.709-1.2282,5.7659-3.3292.709,1.2282-2.1474,1.2398,3.4807,6.028-1.4664.8468h.0007Zm5.2296-3.1123l-4.9253-6.7786,5.0256-3.6513.8332,1.1471-3.6568,2.6571,1.0918,1.5026,3.4029-2.4722.8291,1.1409-3.4029,2.4722,1.3408,1.8451,3.7864-2.7513.8298,1.143-5.1546,3.7455h0Zm8.739-11.0645l1.5394-.7649c.4545.8332.6257,1.6117.5138,2.3378-.1119.724-.4927,1.4002-1.1389,2.0246-.7997.7724-1.7223,1.1348-2.7642,1.0856-1.044-.0498-2.0246-.5486-2.9396-1.4964-.9683-1.0031-1.4609-2.0328-1.48-3.0884-.0177-1.0542.3951-1.9891,1.2399-2.8052.737-.711,1.5462-1.0727,2.4278-1.0809.5227-.0089,1.0856.1638,1.6895.5138l-.9273,1.4521c-.3726-.245-.7602-.3487-1.1621-.3098-.4005.0375-.7629.2129-1.0856.5247-.4463.4312-.6551.9417-.623,1.5319.0307.5882.3937,1.2419,1.0877,1.9604.7356.7622,1.3968,1.1737,1.9836,1.231.5868.06,1.0993-.1228,1.5367-.5459.3241-.3132.5029-.6837.537-1.1157.0348-.4292-.1112-.915-.434-1.4548h-.0007Zm4.9116-.5616l-6.4183-5.3859,1.0884-1.2972,2.5254,2.1194,2.131-2.5391-2.5261-2.1187,1.0877-1.2958,6.4183,5.3859-1.0877,1.2958-2.8065-2.3548-2.131,2.5391,2.8065,2.3548-1.089,1.2972.0014-.0007Zm5.8983-7.2207l-7.1061-4.4401.8727-1.3961,6.5623.0566-4.7451-2.9649.8332-1.334,7.1061,4.4401-.9007,1.4411-6.4237-.0321,4.6346,2.8953-.8332,1.3333v.0007Zm1.0194-9.1375c-.7806-.3473-1.3825-.7547-1.8083-1.2235-.3112-.3473-.5561-.741-.7322-1.1798-.174-.4388-.2573-.8707-.2477-1.2951.0095-.5684.1542-1.1614.4319-1.7851.5022-1.1279,1.2535-1.8744,2.2552-2.2402.9997-.3657,2.1235-.2716,3.3695.2832,1.2371.5507,2.0532,1.3176,2.4524,2.3009.3978.9819.3473,2.0362-.1522,3.1586-.507,1.1389-1.2583,1.8895-2.2504,2.2525-.9942.363-2.101.2716-3.3176-.2709l-.0007-.0007Zm.6571-1.6145c.8659.3855,1.6131.477,2.2388.277.6257-.202,1.0747-.6107,1.349-1.2269.2736-.6148.2777-1.2194.0082-1.813-.2682-.5916-.8448-1.0856-1.7325-1.4807-.8768-.3903-1.6165-.4893-2.2204-.2989-.6025.1924-1.0454.608-1.3286,1.2446-.2845.638-.2934,1.2487-.0307,1.8335.2641.5827.8345,1.072,1.7168,1.4643h-.0007Zm7.3756-6.1037l-7.9045-2.5684.5227-1.6083,6.5609,2.1317,1.2999-4,1.3436.436-1.8226,5.609h0Zm-1.7571-8.1139c-.8359-.1774-1.5094-.4504-2.0232-.8209-.3767-.275-.6987-.6094-.9621-1.0024-.2613-.3924-.4326-.7977-.5118-1.216-.1092-.5575-.0908-1.1682.0512-1.8362.2566-1.2078.8359-2.0942,1.74-2.6598.9021-.5657,2.0212-.7069,3.3545-.4237,1.3245.2818,2.2825.8618,2.8768,1.7407.5937.8782.7636,1.9188.5077,3.1218-.2593,1.2194-.8379,2.1099-1.7325,2.6708-.8973.5616-1.9986.7022-3.3019.4251l.0014.0007Zm.3071-1.7155c.9273.1972,1.6772.131,2.247-.1945.5698-.3275.9246-.8209,1.0645-1.4814.1399-.6585.0184-1.2508-.3685-1.7755-.3855-.5227-1.0522-.8857-2.0027-1.0877-.9389-.1993-1.6834-.1419-2.234.1699-.5493.3132-.8966.8127-1.0413,1.4937-.1453.683-.0273,1.2828.3514,1.8001.3787.5152,1.0386.8748,1.9836,1.0761v-.0007Zm2.9683-11.5953l-1.4091-.0983.2545-3.6377,3.3299.2327c.318.378.5841.9109.7977,1.6008.2122.6892.2948,1.3777.247,2.0648-.0607.8734-.2975,1.624-.709,2.2484-.4135.6244-.971,1.0761-1.6772,1.3558-.7062.2791-1.4589.391-2.2607.335-.87-.0607-1.6315-.2982-2.2832-.709-.6496-.4128-1.132-.9826-1.4425-1.7127-.2409-.5548-.3323-1.2317-.2764-2.0293.0723-1.0372.3466-1.8342.8216-2.3855.477-.5534,1.1041-.8871,1.8847-1.0003l.1958,1.6977c-.419.0901-.7595.2893-1.0194.5977s-.4074.7049-.4415,1.1914c-.0512.7376.1413,1.3395.578,1.8083.4388.4688,1.1163.7335,2.0369.7977.9908.0696,1.7516-.0983,2.2791-.5056.5268-.4053.8147-.9655.8645-1.68.0253-.3541-.0205-.7131-.1337-1.0788-.1133-.3637-.2613-.6817-.4401-.9498l-1.0604-.0744-.1351,1.9324-.0014-.0013Zm3.1887-7.9277l-3.5251.1228-4.7417,3.2364-.0689-1.9829,3.2433-2.0867-3.3797-1.8144-.0682-1.9481,4.9683,2.9089,3.5135-.1228.0587,1.6868h0Z" style="fill: #23446d; stroke-width: 0px;"/>
        <path d="m114.9333,43.059c2.524,0,4.5704,2.0471,4.5704,4.5704s-2.0464,4.5704-4.5704,4.5704-4.5704-2.0464-4.5704-4.5704,2.0464-4.5704,4.5704-4.5704Z" style="fill: url(#n); fill-rule: evenodd; stroke-width: 0px;"/>
        <path d="m15.4677,48.2381c-.2921-.4005,3.4418-1.2501,5.2289-.5165,1.7871.7342,1.2514.6401,1.5183.8959.2668.2566.8495-1.3627.8495-1.3627,0,0,.3337-.9253.4019-1.607.0689-.6817,1.4145-3.4009,1.536-3.6677.1215-.2682.1767-1.5885.2218-2.666.045-1.0768.8884-1.2719,1.3872-1.4589.4974-.187,1.2146.7062,1.0208,1.0379-.1952.3316-.6046,1.1934-.6878,2.1713s-.2907,1.9809-.7874,2.5991c-.4974.6182.3576-.1815,1.1061.2764.245.1494,1.1034,1.1211,2.3296,2.1269,2.5104,2.06,6.0109,4.3378,6.2279,4.6878.2825.4579.1747,1.3306-.2525,1.5565-1.1464.4968-2.5104.6837-3.2207.5568-.2968-.3323,1.1375-.9021.7172-1.6097-.4203-.7069-3.4336-2.7833-3.8594-3.1218-.4251-.3391.6694,2.3378-.2586,2.4647-.4906.0669-.0901.2845.0218.7206-.2757.3855-.3985.7445-.9137.8987-.5159.1549-1.9086-.9771-2.2566-1.4241-.3473-.4469.4156-.855.4565-1.1696.0423-.3146-.2497-2.0212-.0164-2.391.262-.3098.3835-.6523.8659-.8577-.3787-.5213-1.493-1.2535-1.4998-1.317-.0068-.0628-.6517,1.218-.666,1.8779-.0143.6605.0723,1.6772-.1822,1.8226-.2552.1453-.5234.9055-.915.8721-.3903-.0334,1.1532,1.0188,1.478,1.7421.3248.7233,3.4978,4.1467,3.9427,5.5374.4456,1.39.0491,1.5599-.7711,1.4623-.8216-.0983-1.8471-.4217-2.2443-.8393.0416-.7158.9437-.5732.7977-1.1771-.146-.6025-.7854-1.4603-1.2037-2.4197-.419-.9594-.3419.6755-.0785,1.6315.2634.9567-.7827-.9662-1.3518-.9171-.5684.0498-2.4858-.1808-2.9444-.4783-.1713-.1105-.6742-.2866-.6517-.4299.217-.26.9116-.5937,1.3142-.5329.6059.0921,2.0723-.9751,2.6885-.608s.5882.2231.3746.0539c-.2129-.1692-1.6117-2.6257-1.9345-2.3951-.3221.2306.1597-.6182.1597-.6182,0,0-1.0003.1358-1.1436-.3132-.144-.449-.683.5377-.853.842-.1508.2682.0676,2.0246-.1624,1.8226-.2729-.2416-1.1962-1.7271-1.3579-1.8649-1.1341-.9669-3.0426-.7376-4.4306-1.8915l-.0014-.0021Zm11.7707,1.6465s.0566-1.0856.2996-1.0454c.2429.0416.4661.5172.4715.8175.0061.3002-.2661.7342-.2361.5902l-.5357-.3623h.0007Zm121.6723-5.813s.9096,1.1757.1945,1.4739c-.7158.2982-1.1266.5261-1.9406.4736-.8147-.0532-.4756.2115-.0212.3951.4551.1829,1.2016-.0096,1.4964-.2661.2948-.2573,1.9256-.6523,2.0873-1.1218s.8489-1.0338,1.2105-.9164c.361.1174.6851.9594.4374,1.3306-.247.3705-.2989,1.2699-.971,1.3709-.6721.1017-1.7878.1801-2.1747.4306-.3862.2511-.2409.2791-.2409.2791,0,0,.711.4606,1.0003.2961.288-.1651.0996-.1535.462-.3855.363-.2327.7322-.3268.8837.1863.1522.5125.3944.8789.5534,1.0522.159.174,2.6353.5418,3.3975.0171.973-.2115.7213,1.9113-.4954,2.1419s-2.0819-.7131-2.419-.8891c-.3371-.1767-.8564-.2109-.7356.1856s.1078.0444.4633.2532c.3548.2095,1.2746,1.3449,1.6806,1.3545.4053.0096,1.594.4811,1.4214,1.6963s-1.0624.8113-1.7093.5445c-.6469-.2661-3.2091-1.0959-3.8465-1.233-.638-.1358.0416.3378.2825.5943.2416.2566.9676,1.5012.3548,2.2218-.6134.7199-1.0358.0983-1.4698-.3016-.434-.3992-2.0655-1.1157-2.2477-2.0089s-.3603.6789-.8741.6244c-.5138-.0539-.8325-.2955-1.3586-.7015-.5261-.4053-.7301-.0034-.6128.1713s.2784.7021.5855.797c.3077.0955.7117.61.6933,1.2944-.0184.6844-.1522.8605-.7683,1.1354-.6155.275-.799-.5227-1.0304-1.027-.2313-.5049-.7608-1.5292-1.0208-1.3101-.26.2197-2.2368,1.0222-2.8468,1.2692-.5254.086-1.6029-.4606-1.6206-1.2596.1508-.7567.6107-2.3016.9696-2.7445.3596-.4435.1276,1.987.9062,1.7277.7793-.2593,1.0952-.4217,1.4534-.623s-.393-1.0583-.5554-1.3606-1.0795-.9737-1.0822-1.7584c-.0034-.7861,1.3599-1.6663,1.4405-.9089.0812.7574,1.5019,2.6926,1.8246,2.9116.3228.219.5514-.3091.7178.0437.1665.3528.7451.3146.6517-.0205-.0198.0082-.5943-.6066-.3603-1.0283.2347-.421.5104-.8843.7411-.3221.1761.4292,1.506,1.9823,1.7448,2.1092s.5015.4545.9683.7642c.4674.3098.9267.8004,1.0849.5363.1583-.2634-.0785-.9082-.5616-1.0706-.4824-.1624-.5807-.5213-1.0843-1.1559-.5029-.6339-1.3006-1.4104-1.5715-1.7148-.2716-.3043-1.0358-.9574-.5438-1.7318.492-.7752.6237-.6394,1.0153.088s.7335,1.3579,1.3088,1.6868c.5752.3289,1.0085.5432.9887.2832-.0191-.26.0034-.7424-.668-.984s-.681-1.0911-.0246-1.0283c.6558.0628,1.3743.4326,1.276-.0171-.0989-.4504-.1112-.2668-.2818-.4626-.1713-.1972-.2095-.1808-.7165-.3268-.5077-.146-1.3852-.0252-1.9106-.4353-.5247-.4101-.683-.5561-.4469-.9048.2354-.3487.9615-.9123,1.5879-.6298.4845.2184,1.4179-.0908,1.5858-.4429l.7411-.6462.0007-.002Zm-4.2368.6633s-.7008.7554-1.9625.8379c-1.2603.0819.1351.711.4367.898.3009.187-.6592.4531-1.3442.202-.6851-.2504-1.1389.1617-1.8649-.2948-.726-.4565-.1085-1.4377.3548-1.7195.4626-.2818,1.1477-1.2146,1.8615-.5745.8591.4558,2.5179.651,2.5179.651h.0007Zm4.2491,3.4043c.0805-.5513.5527.0853.8141.3385.2613.2538.1494.6059-.4094.6319s-.4858-.419-.404-.9703h-.0007Zm2.6592,2.9574c.3719-.0682.6353.5329.5752.8427-.0607.3091-2.0048.1494-1.8854-.0136.2518-.3419.9382-.7608,1.3094-.8297l.0007.0007Zm-2.0682-1.0938s.5595.7301.1576.8195c-.4012.0894-.5159.159-.7472-.3234-.1583-.4517.5896-.4961.5896-.4961Zm-1.3217.8386l.5097.4162s.4408.3303.1099.4081c-.6182.0457-.7752-.9519-.6189-.8243h-.0007ZM103.8361,9.9495s.9007-.4101,1.6111.4128c.709.8229.3282,1.2637.0293,1.5421-.2996.2784-.58.6025-.5943.9881-.0136.3849.4469.4401.9246.5541.4777.1146,1.4234-.6387,2.1822-1.0304.7588-.393,1.2596.2504,1.538.5493.2784.2996.4708,1.5947-.114,1.7659-.5841.1713-1.508.2279-2.015.4811-.4442.2211-.2777.4422,1.0945.4121.3282-.0068.9976-.0566.9976-.0566,0,0,.9314-.0546,1.3306.5111.3999.5664-.4203,1.5469-.6012,1.5797-.8618-.1658-.2245-.5275-2.3064-.8025-2.0812-.2743-.9232-.1419-1.2289-.1917-.3071-.0491-3.0147-.4306-4.2279-.0778-1.2126.3528.3685.6503.3685.6503.1522-.0628,1.1402-.4961,1.0938-.3084-.0587.2361-.6551.5677-1.0106.9649-.3555.3965-.5609.2231-.4135.4087.1474.1856.3705.3118.6264-.0252.2566-.3378,1.173-1.0774,1.173-1.0774l.4081-.6271s1.4057-.1665,1.9236.4169c.5179.5841-.2143,1.7264-.6905,1.6138-1.828-.4319-2.7472.4053-2.3623.406l.3855.0007c.0785,0,.61-.0785.6107.146.0027.7581-.0717,1.029-.7956,1.0556l-.5275.0191-.2402.4299.7772-.0123s.3057-.0368.1931.2347c-.1119.2723-.1952.696-.5793.681s-.7022.1685-.7022.1685l-.0771.2532.9928-.0136.2477-.2463s.146,1.6097-.6012,1.4514c-.7465-.1576-1.0174.1406-1.0072.114.0096-.0266-.9908,2.9062-1.2282,3.0768-.2381.1713-.999.5814-1.4589.5384-.4606-.043-.8707-.8209-.8086-1.1006s-.1078-1.7891-.3685-1.4746c-.7567.4231-1.6834,1.0508-2.0921.9853-.4081-.0669-1.089-.5213-1.2514-1.3258-.1624-.8052.1979-1.3695.6332-1.2433s.6503.5009,1.4411.4974,1.0003-.028,1.2344-.176c.2341-.1481.9976-.5384.7137-.4606-.2839.0771-.7226-.0205-.7492-.2716-.0266-.2518.0689-1.4104.7806-1.0774.7117.333,1.3122.3446,1.3122.3446l.1563-.3405c-1.332-.3132-.8482-.9021-.7506-.8891l.958.1187.1092-.3296c.0484-.146-.2361.0334-.7663-.1911-.5309-.2245-.4504-.5725-.4504-.5725,0,0-.3248-.6469.2634-.5882.5889.06,1.1866-.2293,1.1866-.2293l-.7547-.5029-.0055-.8816s-1.9898.4067-2.5759.7683c-.5855.3617-1.6459.2068-2.3112-.5616-.6653-.769-.8966-1.5769-.4647-1.8048s.8468-.1406,1.5114.2818c.6653.4224,2.1726.2156,2.5759.0635.404-.1522,2.6073-.3671,2.6073-.3671l.681-1.6001-.7199.1992s-1.3941,1.2651-1.7926.9041c-.3985-.361-.9212-.9239-.1235-2.0123.7977-1.0877.9423-.6899,1.1088-.3241.1658.3651.2313.6537.7062.6578.4756.0048.7984.1726,1.0972-.2784s1.1812-3.1723,1.1812-3.1723l.0007-.0021Zm.3712,4.0102s.0143.3091.466.608c.451.2989.376.7042.376.7042,0,0-1.0174.3125-1.3067.161-.29-.1522.4647-1.4732.4647-1.4732Zm1.8431.1706c-.0764-.0287.6837-.784,1.1006-.6278.4183.1569.3187.4231-.0089.6032-.3275.1808-.8495.4183-.8495.4183,0,0-.1665-.3657-.2422-.3937Zm-3.2071,9.6233s1.5046.2463,2.187,1.087c.683.842.7874,1.7387.1549,2.3773-.565.3712-1.4029.6987-1.7291.2559-.3255-.4429-.6237-.4156-.4046-1.0003s.4162-1.029-.0484-1.783c-.2416-.653-.1604-.9369-.1604-.9369h.0007Zm-3.1948-.8175l.4647.1481s-.4176,1.2931-.5206,1.5681c-.1037.2757-.5254-.4278-.8025-.7977.4306-.3439.8584-.9185.8584-.9185Zm-60.9525.9608s.8147-1.5606,1.6131-1.4582c.7984.1017,1.3251-.4572,2.4647.6319.4565.318.3705-1.0181.9307-.3944.5609.6237.9157.6633.6871,1.6186-.2286.956-.2361.8352-.2886,1.1525-.0539.3166.2607,1.0611.3268,1.4077.0669.3466-.1952.7745.1447.6305.3405-.144.2893-3.435.5541-3.8874.2641-.4531.1146-1.0645.7206-1.3934.6053-.3296,1.5797-.2211,1.8308.4804.2511.7001,2.0444,2.8202,3.1505,3.9024,1.1054,1.0829,3.3006,2.7833,3.4084,3.3402.1085.5568.2143,1.1737-.8959,1.6936-.2996.118-3.1839.5411-3.637.7342-.4531.1917-.4674.26-.4674.26,0,0,.5486.6919.9696.1822.406.1324.7663.9628.4927,1.3872-.5241.8134-.9301.9335-1.188.8011-.5923-.305-1.115-.9034-1.0829-.8509.0314.0525-.0751.5316-.552.4531-.4777-.0792-.5254-.4278-.5254-.4278.0252-.0484.6701-.9417.0771-.7056-.2027.0805-.4128.6353-.4415.5677s-.9935-.2784-.7097-.6817.4142-.4203.1945-.8639c-.2204-.4442.346-.8284.1358-1.0072-.2095-.1788-.6032-1.6759-.6032-1.6759l-.2709-.0109s.0055,1.0781.4626,1.5462c.3917.4012-.2866,1.1546-.4968,1.3736l-.5998-.2402s-.129.9498-.5015,1.0399c-.3726.0901-1.3702.1256-1.2712-.4292.3255-.5643,1.0003-2.3596.7206-2.6762-.7752-.8782-.3262,1.0931-1.4814,1.7557-1.1498.6585-2.116-.1842-2.3323-.4408-.2156-.2566.535-.7861,1.0031-1.5148.4681-.7288.7929-1.9891.625-2.6394-.1692-.6503-1.147-1.9556-1.654-2.3125-.393-.3651-1.5128-1.3477-1.5128-1.3477v-.0007Zm7.1245,3.8342c-.3835.1058.1037-3.6377.4087-3.8178.3043-.1808.4162,1.3415,1.6083,2.5745,1.1914,1.2337,3.2692,3.2351,3.9161,3.4964.6455.2613.0908.739-.3917.9785s-1.8308.8994-1.8308.8994c0,0,.131-.5971-.3309-.769-.4074-.1515-.6496-.1392-.9608.101,0,0,.1788-.3132-.2593-.5084-.2013-.0894-.5582-.3098-.5868-.114-.0423.2941-.2989.3971-.2757.2361,0,0-.0928-1.2433.0444-2.0403.4169-.6585-.5916-1.2419-.5916-1.2419,0,0-.7499.2054-.7499.2054Zm-2.5302,7.3088s.5145-.7595.9655-.8686c.6605-.1597,1.7468.1651,2.7363.666,1.6677.8448.9376,1.6001.8202,2.0471-.2272.4538-1.4275.6633-1.7079.5691-.2811-.0948-1.3333-1.1068-1.5612-1.5183s-1.2528-.8946-1.2528-.8946v-.0007Zm24.015-19.3859s1.639-.1262,2.7943-.6557c1.1552-.5295,2.6455-1.9939,2.8721-2.2463.2279-.2511.956-.4715,1.5217-.2961.565.1754,1.2187,1.0931,1.2044,1.1866-.015.0935.1481,1.3572-.275,1.5783-.4237.2211-1.9823,3.1505-2.1877,3.609-.4094.915.6653-.1692,1.1955-.5111.2613-.3282.4749-.5705,1.3286-.5193.9949.3733.9498,1.5817.7213,1.7339-.361.1494-.6755.1385-1.1006.3555-.973.4961-2.1747,1.4521-2.8727,2.1965-.2743.2921-.9376.5664-1.4998,1.7775-1.2317,1.9754-4.5097,1.5005-5.0174-.4626-.2702-1.029,1.5005-.6305,2.636-1.2808,1.2282-.7035,3.0229-4.9935,3.622-5.8874-.3344.0409-1.811,1.3231-2.0375,1.5469-.3385.3337-1.3333.4169-1.8096-.0334-.4756-.449-1.2501-.4886-1.3654-.9717-.4203-.6824.2702-1.1204.2702-1.1204v.0007Zm65.7092,9.0925c.6039-.6032,1.4882.129,1.4009,1.173-.086,1.044-.7342,2.189-1.3333,2.3971-.5984.2088-3.1941,1.6459-3.19,1.9686.0034.3234,1.2303.7629,1.6404.9587.4087.1958,1.5592-.6646,1.4678-.4599-.0914.204.5384,1.7851.1153,2.2477-.4231.4633-.9178.8727-1.9031.2265-.9956-.8762-2.3767-1.3149-2.8686-1.6411-.4913-.3262-.5056.3193-.5056.3193,0,0-.0464.3808.028.9935.0737.6128-.0382,1.4077.045,2.2572.0839.8489.4265,1.4486,1.1798,2.2149.7526.767-.3009.8953-.8379.9273-.5377.0321-1.9359-.0969-2.492-.6557-.5561-.5595-.1658-.9116-.0566-1.6322.2197-2.5165,1.0065-3.0201.9253-3.6854.2211-.6612-2.0948.6899-3.77.2436-1.6759-.4456-1.7216-.623-2.3016-1.4882s-.0887-1.7414.1242-2.0635c.2136-.3214.5752,1.0727,1.2999,1.4377.7253.3657,2.0614.4974,3.6138-.2272.4995-.3303-.5875-.636-.5268-.6858.0607-.0498-1.233-.2265-1.4732-.5186-.2409-.2927-1.2037-.6987-1.0304-1.5865.174-.8884.7028-1.8431,1.5455-.7458.8427,1.0972,3.4732,2.3821,3.7967,2.1774.5595-.2293,4.5015-3.549,5.1054-4.1535l.0014.0007Z" style="fill: #23446d; fill-rule: evenodd; stroke-width: 0px;"/>
      </g>
    </g>
  </g>
</svg>