<svg width="170" height="170" viewBox="0 0 170 170" fill="none" xmlns="http://www.w3.org/2000/svg">
    <path fill-rule="evenodd" clip-rule="evenodd" d="M84.9944 6.5144C128.22 6.5144 163.474 41.7692 163.474 84.994C163.474 128.219 128.22 163.473 84.9944 163.473C41.7689 163.473 6.51477 128.219 6.51477 84.994C6.51477 41.7689 41.7689 6.5144 84.9944 6.5144ZM84.9941 7.66775C127.584 7.66775 162.321 42.4042 162.321 84.994C162.321 127.584 127.584 162.32 84.9941 162.32C42.4045 162.32 7.66777 127.584 7.66777 84.994C7.66777 42.4045 42.4042 7.66775 84.9941 7.66775Z" fill="#C82227"/>
    <path fill-rule="evenodd" clip-rule="evenodd" d="M91.0791 41.1028L91.0828 68.6498C91.0828 69.9176 91.4461 70.3312 92.7077 70.3493C93.9696 70.3675 94.4058 69.798 94.4733 68.5727L94.4713 53.1955L98.0835 53.1602L98.0893 68.6669C98.0941 69.8347 98.7526 70.3445 99.7813 70.3264C100.748 70.349 101.385 69.6928 101.362 68.5193L101.449 43.4893C101.453 42.2356 100.891 41.4513 99.7514 41.1066C99.3396 40.8503 98.0759 41.0411 98.0704 43.1638L98.0625 50.2148L94.3794 50.2028L94.3935 41.4636C94.4483 40.0563 93.8754 39.2909 92.8053 39.1103C91.7352 38.9297 91.0709 39.3937 91.0791 41.1021V41.1028Z" fill="#7F7F7F"/>
    <path fill-rule="evenodd" clip-rule="evenodd" d="M43.2255 70.338L51.5148 70.2787C52.823 70.3771 54.1076 69.5681 53.9842 67.9268L53.9753 64.4959C54.0058 63.2209 53.9603 62.4623 51.9301 61.9326L48.0332 61.935C48.9758 60.0758 49.9164 59.1681 51.5052 57.0386C51.1931 60.7189 54.3944 60.0353 54.3221 58.1093L54.3002 52.0842C54.2892 50.826 53.8904 50.2326 52.5606 51.4606C49.5151 54.2892 46.8034 57.7225 44.6859 61.4899C43.9553 62.819 44.8582 64.3588 46.3679 64.3431C47.5535 64.3307 48.739 64.3181 49.9249 64.3057C51.7512 64.2865 52.0192 67.3854 49.8848 67.4557L45.2362 67.4776C46.6664 64.6042 43.3838 63.4882 42.0773 66.5902C41.2084 68.6536 41.1741 70.0221 43.2262 70.3384L43.2255 70.338Z" fill="#7F7F7F"/>
    <path fill-rule="evenodd" clip-rule="evenodd" d="M67.4828 44.4652L67.4996 67.5801C67.5102 69.0466 68.0269 69.9402 69.6384 70.0824C71.3547 70.2339 73.3047 70.3062 75.1491 70.1187C76.8504 70.177 77.7916 69.539 77.8684 67.4341L77.8626 41.2073C77.8622 39.7764 76.848 39.1572 75.0577 39.515C73.267 39.8723 70.3805 40.6316 68.9723 41.2491C67.564 41.8665 67.4811 42.878 67.4824 44.4655L67.4828 44.4652ZM70.7873 44.6598C70.7869 43.1151 74.4649 42.2979 74.4642 43.9474L74.4611 65.8747C74.4608 68.0557 70.924 68.2554 70.7921 65.9302L70.7873 44.6598Z" fill="#7F7F7F"/>
    <path fill-rule="evenodd" clip-rule="evenodd" d="M79.291 67.4745C79.2924 71.1278 89.5766 71.1145 89.5786 67.3292L89.5834 56.382C89.5845 54.1247 86.1241 53.9976 86.1347 56.3053L86.1796 66.118C86.1885 68.1341 82.6277 67.8213 82.6288 65.9175L82.6394 42.5183C82.6397 40.8335 86.3197 41.1662 86.3242 42.5765L86.3379 47.5555C86.3896 49.2348 89.7078 49.2125 89.728 47.4554L89.7212 42.3678C89.7832 38.5223 88.4123 38.6128 84.6373 38.4644C80.8621 38.316 79.241 38.8656 79.2821 41.517L79.291 67.4742V67.4745Z" fill="#7F7F7F"/>
    <path fill-rule="evenodd" clip-rule="evenodd" d="M102.943 45.1189L102.935 67.5009C102.811 68.9287 103.706 69.9717 105.225 70.1461C106.743 70.3209 108.325 70.4014 110.111 70.1927C111.898 69.9844 112.682 68.9356 112.633 67.4485L112.623 50.1031C112.621 47.1241 109.524 45.4643 105.841 43.5448C103.08 42.1061 102.942 43.8666 102.942 45.1189H102.943ZM105.99 48.8596C106.074 46.9586 109.47 48.3052 109.481 50.2072L109.569 65.9354C109.431 68.2722 105.757 67.7411 105.97 66.0358L105.991 48.8593L105.99 48.8596Z" fill="#7F7F7F"/>
    <path fill-rule="evenodd" clip-rule="evenodd" d="M65.6592 45.4931L65.6667 67.6325C65.7904 69.0606 64.8105 69.9337 63.2069 70.1088C61.6037 70.2835 60.2762 70.2787 58.49 70.0708C56.7038 69.8621 55.9195 68.9116 55.9685 67.4248L55.9784 50.4779C55.9798 47.6329 59.275 45.9379 62.7604 43.9193C65.432 42.3719 65.6589 44.2414 65.6592 45.4934V45.4931ZM62.611 49.5798C62.5274 47.5661 59.1215 48.9124 59.1212 50.9275L59.1171 65.9957C59.1315 68.1979 62.6614 67.8871 62.6319 65.9984L62.611 49.5798Z" fill="#7F7F7F"/>
    <path fill-rule="evenodd" clip-rule="evenodd" d="M114.05 51.7495C114.033 50.5818 115.176 50.0959 116.074 50.7263C116.972 51.3572 117.329 52.6222 117.349 53.4562L117.345 66.2784C117.344 67.7353 119.392 68.0718 119.392 66.2602L119.394 58.0004C119.395 55.4453 121.067 55.7067 121.772 57.0067C122.477 58.3074 122.407 59.0849 122.402 60.391V66.3171C122.402 67.4848 124.273 67.701 124.298 66.3534L124.313 65.5441C124.367 63.0174 126.613 63.3518 126.893 65.7103L126.978 66.4305C127.106 67.504 126.876 68.7077 126.048 69.7055C124.869 70.6173 123.275 70.4175 122.177 69.7315C121.51 69.4516 121.325 69.0833 120.955 69.0483C120.584 69.013 120.587 69.1247 119.736 69.6171C117.604 71.2159 114.154 70.0581 114.083 67.0103C114.012 63.9621 114.067 52.9172 114.05 51.7491L114.05 51.7495Z" fill="#7F7F7F"/>
    <path fill-rule="evenodd" clip-rule="evenodd" d="M41.0775 99.2241C40.961 97.0555 42.8698 96.8451 43.7292 98.9198C45.0042 102.962 46.2452 105.134 47.9225 107.665C49.4843 110.022 50.5513 110.075 50.5417 107.631L50.5088 99.1203C50.4978 97.467 52.9402 96.987 53.1859 99.2214V113.2C53.1859 114.466 51.1598 115.727 49.4524 114.224C47.7447 112.722 43.8484 106.419 41.0775 99.2245V99.2241Z" fill="#7F7F7F"/>
    <path fill-rule="evenodd" clip-rule="evenodd" d="M64.1533 98.8561C64.2355 97.1614 66.8396 97.0634 66.9363 98.7633V125.342C66.742 127.74 64.1533 127.08 64.1533 124.501V98.8561Z" fill="#7F7F7F"/>
    <path fill-rule="evenodd" clip-rule="evenodd" d="M67.7785 99.2954C68.0139 97.1555 70.7129 97.2145 70.8746 99.3005L72.8712 119.445L76.0801 99.3934C76.2997 97.1059 79.0693 97.1055 78.984 99.3999L73.8166 128.296C72.8736 130.282 71.3468 129.251 71.1943 127.412L67.7785 99.2954Z" fill="#7F7F7F"/>
    <path fill-rule="evenodd" clip-rule="evenodd" d="M85.9003 97.626C87.3206 97.626 87.3374 100.411 85.9003 100.411H82.4057V109.904H84.8512C86.3547 109.905 86.355 112.75 84.8392 112.755H82.406L82.4071 127.157C82.4156 128.205 82.3087 128.463 83.5381 128.393L85.4823 128.5C87.3268 128.602 87.2589 130.995 85.3788 130.977C83.4165 130.958 82.0168 130.926 80.7654 130.758C79.5987 130.64 79.4308 130.023 79.4308 128.388L79.4329 100.41C79.3863 98.9647 79.9311 97.6133 81.4096 97.6257H85.9003V97.626Z" fill="#7F7F7F"/>
    <path fill-rule="evenodd" clip-rule="evenodd" d="M87.6293 98.9746C87.6776 97.8669 88.0672 97.6808 89.3895 97.6808H93.6787C94.8187 97.6808 95.3772 98.0889 95.3772 98.9746V109.477C95.3711 111.264 93.8048 111.433 93.9405 111.537C94.9065 112.282 95.2573 113.312 95.2573 116.896V128.894C95.2141 130.485 92.4901 130.802 92.4901 129.302V116.875C92.5014 114.806 92.193 112.465 90.5459 112.291L90.5456 129.578C90.5524 130.982 87.7386 131.572 87.6293 129.806V98.974V98.9746ZM92.546 101.434L92.5134 108.448C92.5086 109.475 90.5453 109.497 90.5453 108.404L90.5456 101.386C90.2985 100.132 92.6501 99.8813 92.5456 101.434H92.546Z" fill="#7F7F7F"/>
    <path fill-rule="evenodd" clip-rule="evenodd" d="M96.8794 99.3468C96.8691 98.363 97.6421 97.5753 98.8589 97.626H102.827C103.879 97.7339 104.541 98.2743 104.609 99.3468L104.579 105.74C104.57 107.455 101.85 107.24 101.858 105.669L101.878 101.585C101.886 99.9032 99.5877 99.8971 99.588 101.559L99.5894 105.969C99.6781 107.25 99.8471 107.927 100.565 108.521L102.793 110.482C104.025 111.321 104.498 112.647 104.446 114.129L104.434 124.764C104.399 125.905 104.505 126.635 103.174 127.224C101.967 127.758 100.222 128.397 98.7544 128.776C97.2868 129.156 96.9291 128.438 96.9274 127.208L96.9078 115.794C96.8784 113.946 99.538 113.775 99.5921 115.355L99.5801 124.788C99.5558 126.051 101.784 125.986 101.784 124.459L101.781 116.077C101.864 114.283 101.741 113.425 100.592 112.434L98.3425 110.395C97.5311 109.794 96.949 108.486 96.8753 107.316L96.8801 99.3464L96.8794 99.3468Z" fill="#7F7F7F"/>
    <path fill-rule="evenodd" clip-rule="evenodd" d="M106.272 98.9873C106.255 97.1192 109.161 97.147 109.164 99.0014L109.203 122.906C109.206 125.006 106.299 125.716 106.298 123.943L106.272 98.9873Z" fill="#7F7F7F"/>
    <path fill-rule="evenodd" clip-rule="evenodd" d="M111.845 100.446L110.669 100.435C109.159 100.421 109.121 97.6503 110.669 97.6503L115.859 97.65C117.507 97.65 117.418 100.453 115.854 100.447L114.588 100.443L114.623 118.62C114.735 121.056 111.997 122.327 111.841 120.296L111.845 100.447V100.446Z" fill="#7F7F7F"/>
    <path fill-rule="evenodd" clip-rule="evenodd" d="M117.595 99.8042C116.691 97.8405 118.99 96.7331 120.084 98.8462L123.434 105.321C124.635 103.122 125.541 100.175 126.14 98.7338C126.738 97.293 128.959 96.9373 128.488 99.538C128.017 102.139 124.207 110.72 117.955 117C116.08 118.433 114.716 116.352 116.352 114.758C117.849 113.122 120.493 110.166 121.64 107.908C119.944 104.617 118.5 101.768 117.595 99.8045L117.595 99.8042Z" fill="#7F7F7F"/>
    <path fill-rule="evenodd" clip-rule="evenodd" d="M54.7374 98.926C54.9101 97.111 57.2332 97.2556 57.3189 98.9325L60.0583 111.853V98.9154C59.9699 97.4687 62.4425 96.9921 62.7077 99.0658V123.53C62.6611 126.086 60.7001 124.881 60.058 122.042L57.4138 110.263V119.946C57.4138 121.735 54.7429 121.308 54.7425 118.298L54.7377 98.9267L54.7374 98.926Z" fill="#7F7F7F"/>
    <path fill-rule="evenodd" clip-rule="evenodd" d="M101.366 73.2574C100.604 72.3401 101.07 71.8621 102.429 72.2C105.208 73.8775 106.254 76.3456 104.991 79.5257C104.759 80.1099 104.029 80.7565 104.216 80.7983C107.166 81.4541 107.884 85.4209 105.695 88.3756C103.889 91.0935 104.139 93.2617 106.514 95.1305C106.983 96.0889 105.317 96.5837 104.282 95.1247C102.855 93.2251 102.931 91.002 103.483 89.5259C103.719 88.8663 103.357 88.4208 102.543 88.1049C100.252 87.2157 100.339 84.8316 100.684 83.5323C100.723 83.0166 101.34 81.9952 102.858 80.1819C105.038 77.5754 104.023 75.0258 102.559 74.0944C101.988 73.625 101.717 73.6319 101.366 73.2577V73.2574ZM102.629 83.0176C103.255 81.8297 104.773 82.3697 105.339 83.276C105.904 84.7291 105.049 86.7024 104.364 87.0197C103.637 87.4381 102.794 86.699 102.355 85.8201C102.041 84.6473 101.969 83.9815 102.629 83.0176Z" fill="black"/>
    <path fill-rule="evenodd" clip-rule="evenodd" d="M43.0155 85.9716C42.1674 88.7357 42.4295 91.7099 45.1121 92.0899C46.3737 92.1985 48.1137 92.3071 49.3753 92.4157C50.3724 92.7012 50.3176 93.776 49.8451 93.9299C49.1851 94.2475 48.5776 94.1691 47.8317 94.1228L45.2375 94.2081C43.6781 94.4343 43.5699 95.4111 45.3184 95.6733C46.481 95.6733 47.8029 95.6733 48.9655 95.6733C50.7048 95.5516 51.596 95.0582 51.7468 93.8648C51.8437 93.3847 51.6152 92.8153 51.9948 92.7203C53.0255 92.462 53.4799 92.5895 54.5424 92.5603C55.6526 92.5713 57.5498 91.9251 57.9977 89.2678C58.0268 88.5987 58.1512 87.3963 58.1806 86.7268C58.1118 85.7434 56.6171 85.9956 56.4893 86.9375C56.464 87.6992 56.2961 88.9944 56.2707 89.7561C55.9651 90.5175 55.3792 90.9136 54.7925 91.0993C54.0182 91.2833 53.2438 91.4231 52.4698 91.2528C51.7725 91.1798 51.4668 90.342 52.0884 89.8445C53.6334 89.4844 54.4616 88.7775 54.4636 87.3854C54.3944 86.3629 54.0552 85.7643 52.527 85.6355C51.4254 85.5752 50.3231 85.6286 49.2215 85.7948C47.7282 86.0319 46.5656 86.4486 46.6266 87.531C46.5553 88.5181 47.155 89.2716 48.4776 89.5468C49.5374 89.7856 50.0973 89.9764 50.0839 90.3794C50.0705 90.782 50.1075 91.1627 49.2962 91.199L46.0051 90.9496C45.3701 90.8255 44.2678 90.4068 44.383 89.2134L44.6924 85.998C44.5591 85.0327 43.5764 85.0807 43.0162 85.9709L43.0155 85.9716ZM48.5406 87.1376C48.7356 86.9783 48.837 87.0379 49.0474 86.9954C49.9311 86.8172 51.0334 86.7833 51.9393 86.8642C53.0968 86.968 52.9227 88.0312 52.5283 88.3804C52.1878 88.6823 51.7451 88.7004 51.301 88.7008C51.0841 88.7011 50.8617 88.6997 50.6472 88.6555C50.0723 88.537 49.5357 88.3992 49.0364 88.1296C48.3326 87.8551 48.3457 87.2969 48.5406 87.1376Z" fill="black"/>
    <path fill-rule="evenodd" clip-rule="evenodd" d="M40.5738 75.0772C40.4607 74.3367 40.4823 73.7128 40.705 73.0062C40.9678 72.3521 41.601 72.4193 41.9748 72.8006C42.1739 73.1412 42.3977 73.3948 42.62 73.6665C43.4335 73.7573 44.2181 73.7518 45.0319 73.7285C45.6069 73.7576 45.6953 74.8843 45.0847 74.8497L43.3502 75.0193C42.1825 75.133 41.7429 76.6441 42.2671 76.6208C43.0926 76.7397 44.3614 76.8593 45.1868 76.9782C46.1647 77.1502 45.8759 77.6289 45.1731 77.67C44.3765 77.7166 43.1364 77.7628 42.3394 77.8094C41.7264 77.8738 41.6826 78.702 42.2356 79.1173C42.5717 79.7183 44.0527 79.9962 45.1789 80.1867C45.9824 80.3556 45.916 80.8997 45.4236 80.9717C44.2887 80.9594 42.7989 80.9467 41.6641 80.9344C40.9168 80.8038 40.4651 80.3885 40.3092 79.6875C40.3072 79.2468 39.9207 78.8987 39.7367 78.6866C39.2316 78.2432 39.2128 77.746 39.5266 77.2112C39.9385 76.6283 40.5745 75.6573 40.5741 75.0775L40.5738 75.0772Z" fill="black"/>
    <path fill-rule="evenodd" clip-rule="evenodd" d="M57.6163 74.5536C56.9077 74.4364 56.7771 73.8741 57.5803 73.7641C58.6096 73.7998 59.5646 73.3653 59.9747 72.7855C60.6652 72.0704 61.0935 72.2459 61.3751 72.9202C61.6389 74.925 61.4217 76.9086 60.8752 78.8785C60.3732 80.0949 59.6506 80.9494 58.6052 81.276C58.048 81.4045 57.4868 81.3503 56.9241 81.2139C55.9939 80.9093 55.8983 80.6133 56.6367 80.3251C57.4398 80.2874 58.144 80.0661 58.7484 79.6618C59.3926 78.8983 59.2545 78.3114 58.3341 77.9006C57.7876 77.7385 57.2147 77.7032 56.6254 77.6953C55.8174 77.6401 55.792 76.9274 56.4948 76.7592C57.3775 76.6821 58.2598 76.605 59.1428 76.5279C60.2506 76.3254 60.3468 75.0508 59.6389 74.6893C59.0718 74.4463 58.4143 74.4731 57.6166 74.5539L57.6163 74.5536Z" fill="black"/>
    <path fill-rule="evenodd" clip-rule="evenodd" d="M48.3566 73.3273C48.063 72.8003 48.4875 72.2973 48.9909 72.4713C49.4819 72.816 50.0017 73.1022 50.5451 73.3393L52.211 73.1782C52.6212 73.1337 52.8563 72.8825 53.1619 72.6505C53.6488 72.3363 54.0888 72.5745 53.7499 73.1217C53.521 73.7474 53.2431 74.004 53.496 74.3874C54.7929 75.4637 54.296 77.0806 53.4651 78.1576C52.713 78.8607 52.5708 79.4624 53.2349 79.9773L54.2621 80.7867C54.7268 81.3514 54.5184 81.8849 53.7108 81.6042C53.117 81.4387 51.9428 80.4087 50.8912 80.7226C50.2946 81.0834 49.5014 82.0038 51.5799 81.9565C53.6584 81.9092 56.5651 82.1292 58.3756 82.2974C59.9829 82.6301 60.9307 83.2167 61.0318 84.8313C61.2247 87.0691 61.2076 89.825 60.943 92.0032C61.0613 92.9904 59.5197 93.2922 59.63 92.1259L59.8404 85.6896C59.7931 84.7579 59.5937 84.0655 58.3732 83.6896C52.9844 83.0821 47.5881 83.191 42.1989 83.9366C41.3831 84.2272 40.8006 84.6983 40.7547 85.7345L40.632 91.2028C40.7581 92.9581 39.3587 93.1768 39.2827 92.0659C39.2803 90.0134 39.2782 87.9613 39.2758 85.9089C39.0473 84.2913 39.9923 83.005 42.593 82.3574L45.3098 82.2686C47.1666 82.2251 48.8051 81.6776 49.1348 80.1696C49.2324 79.3808 49.0268 78.7589 48.2326 78.4807C47.0851 77.5285 47.033 76.7102 48.1932 75.9461C49.2324 75.0066 49.5165 74.3699 48.3566 73.3273ZM51.6902 75.1553C52.8984 75.1625 53.1506 75.7446 53.0725 76.4731C52.9303 77.806 52.2213 78.3556 51.117 78.3587C50.8357 78.359 50.5287 78.3244 50.1983 78.2583C49.5953 78.0746 49.0854 77.7419 48.8346 76.998C48.7805 76.1407 49.7776 75.4757 50.9169 75.2129C51.2102 75.1721 51.4668 75.1539 51.6906 75.155L51.6902 75.1553Z" fill="black"/>
    <path fill-rule="evenodd" clip-rule="evenodd" d="M63.0825 85.8849C63.4012 87.3634 64.5093 87.4573 64.7481 85.8445C64.7872 79.8005 64.6789 76.3494 71.9961 76.5512C72.7917 76.4183 73.1176 76.7373 72.9733 77.5079C73.2416 82.9974 71.9492 84.6904 71.7477 85.19C70.571 88.11 65.762 92.119 63.7219 93.0719C62.5929 93.5992 63.2275 94.9599 64.3716 94.5288C67.8244 92.8118 69.9392 90.7066 71.8662 88.328C72.4563 87.5991 72.7715 86.7254 73.1981 85.8904C73.5551 85.1393 74.0496 85.1876 74.4786 85.7903C74.569 86.1001 74.8675 86.7244 75.942 88.3571C77.6097 90.8903 79.8108 93.6064 81.2232 94.4798C82.6353 95.3536 83.1931 94.1324 82.1665 93.2607C79.9623 91.3878 76.1894 86.4773 75.339 83.2544C74.8414 80.5615 74.7801 79.6268 74.9624 77.6158C75.1118 76.606 75.4157 76.6256 76.1024 76.5567C81.8211 75.9848 82.8833 80.2549 82.2823 85.3644C82.3772 86.5668 83.4374 87.2544 83.8787 85.5885C83.9455 83.7763 83.8996 82.1668 83.606 80.3546C83.0756 76.6098 81.2818 75.5356 77.7101 75.1755C74.7948 74.8812 75.12 73.7905 74.9833 72.532C74.8675 71.4677 73.4452 71.6017 73.2423 72.214C72.9696 73.6651 73.0926 74.9747 71.5147 75.1361C69.0798 75.3146 65.7819 75.5185 64.5059 77.7217C62.9345 80.8987 63.2237 83.4877 63.0825 85.8842V85.8849Z" fill="black"/>
    <path fill-rule="evenodd" clip-rule="evenodd" d="M86.0854 73.2793C85.1126 72.4857 86.132 71.648 87.5714 72.1561C90.3952 73.5178 91.4567 75.9862 90.1121 79.7916C89.9487 80.0681 89.9275 80.3447 90.047 80.6212C92.7838 82.6133 91.8987 84.6456 90.0152 88.0127C88.3999 90.9006 90.7687 93.9559 92.3328 94.7536C92.8019 95.7123 92.3983 96.0961 90.9804 95.4793C89.2956 94.3335 87.2898 92.2989 87.765 88.9581C87.8664 88.2481 88.2231 87.7256 87.4796 87.569C85.2497 86.6894 85.0163 85.4086 85.3333 83.4878C85.4405 82.836 86.1255 80.7154 87.9662 80.0359C89.5009 77.744 89.1678 75.2639 87.9853 74.2538C86.8615 73.2937 86.6285 73.723 86.085 73.2793H86.0854ZM88.9276 82.1021C89.4262 82.0901 89.813 82.7144 89.9799 83.4761C90.2506 84.7124 90.2235 86.2378 88.3205 86.4177C87.8113 86.4177 87.1356 86.1772 86.9495 85.607C86.5733 84.452 86.8577 83.7231 87.5224 82.7631C87.8822 82.2433 88.5863 82.1107 88.9276 82.1024V82.1021Z" fill="black"/>
    <path fill-rule="evenodd" clip-rule="evenodd" d="M93.7075 73.3208C93.0452 72.0304 93.9453 71.8183 95.3036 72.1564C98.0824 73.5181 99.0538 75.9869 97.8446 79.792C97.6812 80.0685 97.6596 80.345 97.7795 80.6215C100.559 82.946 100.446 85.1465 97.3087 88.9547C96.7105 91.2333 97.2358 92.3465 99.4095 94.8057C99.8786 95.7641 99.2649 96.1482 97.847 95.5314C95.8984 93.7123 95.0901 91.2274 95.7079 89.1435C95.9906 88.5558 95.8796 88.0364 95.1364 87.7701C93.1442 86.7336 92.7522 85.3665 92.8242 83.9013C92.8818 82.7329 93.8998 81.2324 95.282 80.4173C97.3728 78.506 96.8489 74.7386 95.295 74.1664C94.6728 73.7802 93.9916 73.7782 93.7079 73.3208H93.7075ZM94.9003 83.3202C95.785 81.5172 97.9927 81.7286 98.1551 84.06C98.2538 85.4744 97.8936 85.8201 97.3752 86.209C96.3075 87.0108 95.0133 86.7991 94.6693 85.5412C94.547 84.3889 94.5268 84.3454 94.8999 83.3205L94.9003 83.3202Z" fill="black"/>
    <path fill-rule="evenodd" clip-rule="evenodd" d="M120.3 93.1151L120.361 92.4322C119.616 91.7842 118.63 91.3549 117.562 91.1277C116.783 90.9591 116.163 91.6444 116.717 92.1509C117.408 92.4935 120.165 93.4457 120.301 93.1151H120.3ZM115.536 91.8264C114.966 90.9046 115.946 90.8471 117.224 90.598C118.377 90.3396 119.007 89.2627 119.036 88.4708L119.249 84.5941C119.17 83.9729 118.859 83.3449 117.932 83.2427C117.051 83.1403 116.354 83.1626 116.079 82.761C115.809 82.3656 116.556 82.4403 117.669 81.9702C118.703 81.534 119.206 79.2242 117.605 78.998C116.97 78.9079 116.977 78.8774 116.349 78.9381C115.912 78.9806 115.61 78.6571 115.657 77.9502C115.628 77.0803 116.014 76.7846 116.836 76.7558C117.713 76.7256 118.692 75.9519 118.673 74.9319L118.646 73.4516C118.632 72.7098 117.428 72.6855 117.576 73.7275L117.429 74.9045C117.325 75.735 115.717 75.8368 115.739 75.1529L115.408 72.2555C115.345 71.2244 114.021 71.3235 113.958 72.6749L113.852 75.2262C113.737 75.9204 112.251 76.0393 111.874 75.4534C111.702 74.8442 111.645 74.2096 111.634 73.5606C111.495 72.8318 110.696 72.8458 110.441 73.7114C110.161 75.5133 110.312 76.8192 111.609 77.0426C112.013 77.1118 113.185 77.2317 113.707 77.3537C114.353 77.5045 113.947 78.2189 114.249 78.5656C114.55 78.9127 114.631 79.3033 113.396 79.3979C112.457 79.4579 111.503 79.0532 110.931 78.2874C109.938 77.7775 109.144 78.4502 109.952 79.426C110.334 79.8995 110.572 79.9348 111.034 80.3296C111.813 80.7911 111.638 81.1752 110.948 81.6443C110.258 82.1134 109.348 81.7704 108.739 82.0466C108.104 82.3207 108.279 83.1787 109.227 83.2756C110.984 83.2143 112.122 83.0731 112.924 81.4014C112.814 80.1044 115.282 80.5482 116.503 80.0472C117.724 79.5456 117.529 81.1002 116.364 81.3041C114.608 81.5374 114.215 81.8735 114.053 83.1602C113.508 83.1718 112.816 83.2321 112.271 83.2438C111.661 83.4148 111.12 83.8869 110.821 84.822C110.752 86.0908 110.724 87.177 110.754 88.4458C111.037 89.9449 111.904 90.4966 113.256 90.6161C113.801 90.72 114.202 90.5754 114.165 91.2024C114.061 91.7277 113.777 91.8665 113.338 91.2963C113.018 90.9074 112.541 90.9872 112.08 91.1414C111.047 91.3223 110.356 91.7277 109.645 92.12C108.757 92.5278 109.22 93.1137 110.071 93.1236C111.593 92.5802 112.59 92.3914 112.433 92.9842C112.267 93.615 111.201 93.9809 110.146 94.2564C109.393 94.5734 109.667 95.2751 110.551 95.2998C111.873 95.2628 113.199 94.5473 114.414 93.382C114.577 93.0006 114.833 93.0071 115.18 93.3374C115.429 94.0402 118.917 96.5127 119.718 95.1422C120.036 94.5987 119.383 94.4452 118.876 94.3315C117.033 93.9182 116.108 92.7481 115.537 91.8267L115.536 91.8264ZM114.679 89.8466C115.04 89.8479 116.766 89.6297 116.483 89.273C116.355 89.113 115.327 88.7035 115.052 88.5061C115.012 88.5065 114.971 88.5096 114.932 88.515C114.741 88.696 113.794 88.9728 113.57 89.3213C113.54 89.9408 114.318 89.8452 114.68 89.8466H114.679ZM113.929 84.946C113.991 84.626 113.321 84.5092 112.973 84.5092C112.931 84.5092 112.886 84.5122 112.841 84.5181C112.488 84.5828 111.93 85.0982 111.882 85.3778C111.89 85.8201 112.007 86.1868 112.324 86.1652C112.947 86.1223 114.102 85.7328 113.929 84.946ZM117.396 86.0185C117.877 86.0648 117.865 85.4891 117.716 84.8922C117.705 84.565 117.001 84.2546 116.546 84.2532C116.481 84.2529 116.421 84.2563 116.369 84.2631C115.839 84.2799 115.558 84.6222 115.712 84.9563C115.824 85.2818 115.963 85.5313 116.554 85.7033C116.568 85.7071 117.382 86.0189 117.396 86.0189L117.396 86.0185ZM117.569 88.428C117.914 88.426 118.275 87.7708 117.973 87.5467C117.876 87.4744 116.449 86.5822 116.228 86.4064C115.821 86.0833 115.467 86.8566 115.711 87.2582C115.901 87.5693 116.831 88.1508 117.129 88.2591C117.232 88.28 117.473 88.4283 117.569 88.428ZM112.453 88.5329C112.142 88.5332 111.787 88.292 111.793 87.8016C111.801 87.4227 112.885 87.1599 113.225 86.8861C113.327 86.8563 113.497 86.7172 113.603 86.7175C114.109 86.7189 114.313 86.8854 114.248 87.249C114.213 87.7246 113.052 88.5284 112.585 88.5226C112.578 88.5222 112.615 88.5329 112.453 88.5329H112.453Z" fill="black"/>
    <path fill-rule="evenodd" clip-rule="evenodd" d="M120.563 74.5779C120.326 73.6596 120.856 73.33 121.392 73.9594C121.814 74.3069 121.559 75.0436 122.06 75.2498C122.77 75.5428 123.629 75.0189 123.504 74.2952C123.521 73.5421 123.639 72.9476 123.656 72.1938C123.619 71.2224 125.199 71.0929 125.145 72.1938C125.157 72.8472 125.236 73.5006 125.247 74.1537C125.417 74.6629 125.61 74.9641 126.14 74.9555C126.948 75.1203 127.539 74.7294 127.529 74.15L127.385 73.3026C127.554 72.2428 128.253 72.5728 128.45 73.3201C128.694 73.8666 128.756 74.408 128.616 75.0155C128.461 75.6819 127.891 76.2284 126.769 76.2552C125.842 76.249 125.261 76.4083 125.281 77.156L125.101 78.4008C124.995 79.2012 123.923 79.0954 123.715 78.4892C123.849 77.2968 123.622 76.2822 122.285 76.6372C120.317 76.7431 120.597 75.0124 120.563 74.5779H120.563Z" fill="black"/>
    <path fill-rule="evenodd" clip-rule="evenodd" d="M121.116 80.6835C120.307 80.4166 120.27 79.8927 121.01 79.4082C121.784 79.0399 123.172 79.2753 124.373 79.62C125.688 79.9972 126.059 80.5448 126.032 81.8156C126.018 82.5198 126.094 83.1544 125.967 83.8647C125.772 84.958 127.99 84.8412 128.362 83.9849C128.627 83.3733 128.793 82.7024 128.639 81.4822C128.846 80.2425 129.205 80.2758 129.694 81.1464C129.918 82.1192 130.004 82.8367 129.826 83.8503C129.642 85.1712 128.428 85.9829 126.937 86.0435C125.915 86.0847 125.628 87.1071 126.432 87.5755C128.693 88.3838 129.422 89.973 129.718 92.461C129.852 94.1372 129.788 95.0325 129.582 95.2977C129.19 95.8024 128.623 95.4694 128.533 94.6769C128.642 94.1081 128.529 88.6713 125.78 89.1784L125.791 95.2439C125.765 96.3973 124.339 96.2445 124.412 95.0675C124.323 93.2247 124.441 91.7811 124.353 89.9387C124.338 89.4402 123.778 89.1764 123.303 89.3799C121.824 89.7578 121.117 92.1372 121.064 94.8934C120.947 95.6774 120.159 95.6887 120.04 94.8934C119.857 92.6477 120.36 90.3191 121.955 88.6065C122.376 88.1542 123.107 87.9425 124.053 87.5073C124.641 86.8083 124.432 86.1052 123.337 85.9956C121.771 86.1097 120.39 85.7687 120.374 83.7413C120.305 83.2815 120.763 81.5018 121.535 82.5623L121.908 84.1223C122.004 84.9217 124.113 84.8333 124.289 84.3104C124.464 83.7872 124.408 83.0221 124.38 82.2919C124.415 81.7666 124.428 81.2585 123.433 80.9888C121.489 80.4615 121.504 80.6359 121.116 80.6842V80.6835Z" fill="black"/>
    <path fill-rule="evenodd" clip-rule="evenodd" d="M100.526 145.331L104.42 143.862C105.681 143.386 106.802 143.173 107.577 143.311C108.352 143.45 108.843 143.925 109.244 144.646C109.843 145.722 109.852 146.786 108.777 147.452C109.425 147.346 109.905 147.485 110.455 148.246L112.09 151.4L109.787 152.385L108.581 149.965C108.016 148.832 106.424 149.507 104.869 150.068L106.332 153.526L104.121 154.395L100.526 145.332L100.526 145.331ZM103.265 146.095L104.168 148.332C105.436 147.936 108.309 147.2 107.312 145.719C106.548 144.583 104.216 145.738 103.265 146.094V146.095Z" fill="black"/>
    <path fill-rule="evenodd" clip-rule="evenodd" d="M15.1265 100.199C15.5085 101.821 16.0643 102.918 16.8257 103.453C17.575 103.98 18.4806 103.922 19.6768 103.61L25.509 102.089L24.9049 99.3852L19.0703 100.844C18.2833 101.041 17.7121 101.047 17.354 100.862C17.0395 100.693 16.8164 100.345 16.6824 99.8097C16.5567 99.2762 16.6105 98.8551 16.8459 98.5525C17.1012 98.2575 17.6048 98.0177 18.3604 97.8289L24.1953 96.3699L23.5912 93.6657L17.7566 95.1247C16.5361 95.4296 15.5925 95.7654 15.1518 96.6543C14.7599 97.4444 14.766 98.6337 15.1261 100.199H15.1265Z" fill="black"/>
    <path fill-rule="evenodd" clip-rule="evenodd" d="M19.8386 114.713L28.8142 111.42L27.9689 108.976L22.1665 111.106L26.8563 105.945L25.9082 103.302L16.9329 106.498L17.7765 108.954L23.2924 106.929L18.8449 111.864L19.8386 114.713Z" fill="black"/>
    <path fill-rule="evenodd" clip-rule="evenodd" d="M155.026 95.1661L145.607 93.531L145.117 96.0697L151.207 97.1268L144.565 99.2512L144.064 102.014L153.435 103.733L153.932 101.185L148.144 100.18L154.462 98.1311L155.026 95.1661Z" fill="black"/>
    <path fill-rule="evenodd" clip-rule="evenodd" d="M139.716 130.616L140.225 130.085L132.915 123.924L131.258 125.815L135.985 129.799L129.178 128.285L127.329 130.405L134.639 136.566L136.292 134.678L131.8 130.892L138.29 132.308L139.716 130.616Z" fill="black"/>
    <path fill-rule="evenodd" clip-rule="evenodd" d="M30.4123 118.368L32.0111 121.336L33.5427 120.427L28.8628 112.061L27.3312 112.97L29.0444 115.867L22.3563 119.512L23.633 122.103L27.5731 119.913L30.4123 118.368Z" fill="black"/>
    <path fill-rule="evenodd" clip-rule="evenodd" d="M37.0531 124.007C35.9573 122.431 35.0013 121.75 34.0265 121.531C33.1288 121.33 31.9261 121.766 30.4424 122.793C29.0036 123.789 28.1422 124.857 27.7914 125.967C27.4974 126.896 27.8301 127.944 29.0019 129.629C30.1656 131.303 30.9399 131.798 31.8192 131.818C32.8944 131.841 34.1988 131.347 35.7373 130.273C37.1922 129.257 38.0166 128.26 38.1705 127.279C38.3113 126.381 38.0913 125.502 37.0527 124.008L37.0531 124.007ZM29.8551 126.945C30.1354 126.469 30.8666 125.81 32.0491 124.966C33.1562 124.193 33.961 123.865 34.4695 123.989C34.9455 124.081 35.3676 124.39 35.7401 124.924C36.1211 125.47 36.2571 125.967 36.1471 126.413C36.0142 126.84 35.3964 127.429 34.2941 128.181C33.0667 129.056 32.157 129.515 31.5653 129.559C31.1222 129.552 30.7045 129.271 30.3153 128.713C29.8106 127.991 29.6578 127.403 29.8548 126.945H29.8551Z" fill="black"/>
    <path fill-rule="evenodd" clip-rule="evenodd" d="M42.5039 139.408L41.7076 141.753L43.7785 143.702L47.1964 133.966L45.2629 132.159L36.0269 136.758L38.0999 138.567L40.2938 137.457L42.5042 139.408L42.5039 139.408ZM43.8083 135.706L43.0758 137.777L41.8419 136.688L43.8083 135.706Z" fill="black"/>
    <path fill-rule="evenodd" clip-rule="evenodd" d="M149.831 107.218L152.295 106.965L153.152 104.306L142.878 105.257L142.013 107.672L150.043 114.15L150.903 111.572L148.979 110.04L149.831 107.218V107.218ZM145.922 107.576L148.11 107.378L147.634 108.955L145.922 107.576Z" fill="black"/>
    <path fill-rule="evenodd" clip-rule="evenodd" d="M54.2758 143.444L55.4069 141.233L60.4428 143.809L61.1719 142.382L53.5111 138.465L49.1581 146.977L51.7831 148.319L53.547 144.87L57.0777 146.675L57.8071 145.25L54.2758 143.444Z" fill="black"/>
    <path fill-rule="evenodd" clip-rule="evenodd" d="M62.8286 153.145C64.3548 153.689 65.5431 153.793 66.4014 153.457C67.2337 153.095 67.8648 152.338 68.2931 151.181L70.31 145.526L67.5332 144.536L65.5163 150.191C65.2443 150.954 64.9356 151.434 64.5888 151.635C64.2797 151.808 63.8744 151.809 63.3669 151.637C62.8649 151.458 62.5528 151.189 62.4363 150.831C62.3369 150.461 62.4185 149.912 62.6799 149.179L64.6967 143.524L61.9196 142.534L59.9028 148.189C59.481 149.372 59.4995 150.388 59.9665 151.237C60.4051 151.978 61.3607 152.613 62.8283 153.145L62.8286 153.145Z" fill="black"/>
    <path fill-rule="evenodd" clip-rule="evenodd" d="M71.7165 145.567L69.5455 154.878L76.1716 156.433L76.5351 154.873L72.6413 153.977L74.4488 146.226L71.7165 145.567Z" fill="black"/>
    <path fill-rule="evenodd" clip-rule="evenodd" d="M78.4303 146.79L77.3794 156.292L84.1433 157.05L84.319 155.458L80.2073 155.005L81.0824 147.095L78.4303 146.79Z" fill="black"/>
    <path fill-rule="evenodd" clip-rule="evenodd" d="M113.088 140.149C111.441 141.136 110.621 141.956 110.336 142.914C110.075 143.796 110.429 145.026 111.353 146.575C112.249 148.079 113.257 149.01 114.34 149.435C115.247 149.791 116.391 149.618 118.152 148.562C119.901 147.515 120.62 146.624 120.699 145.748C120.795 144.677 120.391 143.342 119.423 141.735C118.508 140.215 117.569 139.324 116.6 139.104C115.713 138.903 114.649 139.214 113.087 140.149L113.088 140.149ZM115.531 147.529C115.076 147.217 114.467 146.444 113.705 145.207C113.009 144.05 112.737 143.224 112.894 142.726C113.018 142.257 113.356 141.857 113.914 141.522C114.484 141.178 114.989 141.077 115.426 141.216C115.843 141.378 116.39 142.034 117.065 143.185C117.855 144.468 118.251 145.407 118.255 146.001C118.218 146.442 117.909 146.84 117.326 147.191C116.572 147.645 115.975 147.758 115.531 147.53V147.529Z" fill="black"/>
    <path fill-rule="evenodd" clip-rule="evenodd" d="M98.3326 152.569C98.3209 152.58 98.3254 152.6 98.3463 152.627C98.3586 152.681 98.3658 152.743 98.3682 152.815C98.3501 152.972 98.2349 153.181 98.0221 153.441C97.635 153.845 97.1268 154.12 96.508 154.264C95.9272 154.4 95.4232 154.289 94.9966 153.928C94.5926 153.539 94.2609 152.822 94.0029 151.779C93.6517 150.338 93.5897 149.337 93.8158 148.775C94.057 148.277 94.4494 147.958 95.0041 147.821C95.5438 147.695 95.9759 147.719 96.301 147.894C96.6101 148.063 96.8198 148.352 96.9305 148.762L99.7069 148.114C99.4983 147.22 98.9226 146.597 97.9766 146.246C97.1556 145.931 96.0444 145.934 94.6402 146.261C93.33 146.567 92.2934 147.172 91.5379 148.074C90.8646 148.908 90.7652 150.357 91.2473 152.422C91.6112 153.981 92.2897 155.045 93.2751 155.611C94.1598 156.106 95.3327 156.044 96.8722 155.824C97.6432 155.713 98.3542 155.084 98.8822 154.582L99.0727 155.357L101.429 154.76L100.311 149.968L95.4876 151.093L95.8515 152.653L98.2233 152.1L98.3329 152.569L98.3326 152.569Z" fill="black"/>
    <path fill-rule="evenodd" clip-rule="evenodd" d="M117.088 138.521L119.113 136.906L123.848 140.5L121.094 135.398L122.851 133.949L127.669 137.615L125.143 132.177L127.033 130.572L131.293 140.239L129.704 141.664L123.87 136.841L127.105 143.56L125.66 144.725L117.088 138.521Z" fill="black"/>
    <path fill-rule="evenodd" clip-rule="evenodd" d="M136.44 119.182L138.046 116.502L144.858 118.061L139.558 113.362L141.043 110.694L149.534 114.758L148.67 116.494L143.414 114.466L147.859 118.212L146.575 120.125L140.697 119.061L145.863 122.211L144.902 124.203L136.44 119.182Z" fill="black"/>
    <path fill-rule="evenodd" clip-rule="evenodd" d="M97.9868 13.3224C97.0997 13.2597 97.159 12.6203 97.883 12.7063C98.0845 12.7738 98.4929 12.5535 98.5477 12.437C99.3598 12.4775 100.286 12.2218 100.392 11.7435C100.609 11.515 101.079 11.5396 101.093 11.748C100.819 13.7202 103.471 13.994 104.979 12.8616C105.485 12.582 105.915 12.6522 105.929 13.0994C105.896 13.6709 106.211 13.9166 106.651 14.0444C107.197 14.6563 107.038 14.9836 106.465 15.1967C105.826 15.3399 105.104 15.3858 104.374 15.2549C103.529 15.0425 103.12 15.5304 103.951 15.9385C104.502 16.114 104.997 16.36 105.435 16.6769C105.865 17.0843 105.803 17.3379 105.333 17.3862C104.67 17.4071 103.85 17.328 103.114 17.1666C102.729 17.1659 102.633 17.4458 102.717 17.7419C102.75 18.1003 103.535 18.2891 104.32 18.4724C105.244 18.7321 105.306 19.0984 104.778 19.5366C104.053 20.2613 103.882 20.7688 104.521 21.1478C104.982 21.3952 105.312 21.6686 105.428 22.0722C105.545 23.1002 106.269 24.0551 107.661 24.3306C109.491 25.1972 108.503 27.3315 106.807 27.1047C106.098 26.9412 105.425 26.1874 104.761 24.7247C104.527 24.3073 104.328 23.88 104.164 23.4449C103.84 22.5146 102.285 22.5519 101.875 23.1245C101.379 23.6833 101.018 24.3878 100.701 25.1478C100.588 25.6628 100.544 26.0706 100.719 26.3875C101.19 26.553 101.941 26.9539 102.348 27.264C103.037 27.9178 101.722 28.6613 101.158 28.3704C100.769 28.11 100.41 27.523 100.151 27.3853C99.145 27.1016 97.9742 26.8511 96.7211 26.9546C96.4343 26.9947 95.6284 26.8737 95.049 26.6507C94.6207 26.4005 94.4034 26.0476 94.7776 25.5062C95.085 24.9186 95.8525 25.0567 96.3144 24.4557C96.7084 23.7759 96.8952 23.6333 97.1217 23.0618C97.2899 22.7675 97.4472 22.1195 97.5188 21.8454C97.5558 20.8623 97.3012 20.6828 95.8635 20.9874C95.1052 21.2958 94.3188 21.5415 93.5043 21.7248C92.8817 21.8481 92.2235 21.9626 91.6561 21.8488C90.1646 21.5086 90.28 20.7544 91.6952 19.8327C92.0245 19.8512 93.6578 19.8827 94.7481 19.7477C95.5407 19.5058 96.6577 19.2961 97.1347 18.6115C97.1556 18.2432 96.6399 17.8292 96.6608 17.4606C96.5755 16.7071 96.8664 16.6368 97.9584 16.8455L99.5469 16.9212C100.816 16.9802 100.772 15.9306 99.8895 15.8587L99.1302 15.8556C98.0691 15.9293 97.7953 15.061 98.8229 15.0531L99.9923 14.9846C100.716 14.878 100.711 13.4499 99.5329 13.3512C99.0199 13.3413 98.5001 13.332 97.9872 13.3221L97.9868 13.3224ZM97.405 25.1769C97.405 25.1766 97.4047 25.1766 97.4043 25.1763L97.405 25.1769ZM98.3483 25.3969C98.6756 25.3884 99.0751 25.3308 99.1686 25.2701C99.5472 24.7699 99.4074 24.4286 99 24.224C98.7455 24.1041 98.3274 24.0394 97.9543 24.0493C97.8193 24.0531 97.6781 24.0668 97.5297 24.0918C97.3046 24.3491 97.1456 24.8459 97.4043 25.1763L98.3483 25.3969ZM99.758 23.106C99.3094 23.1163 98.4991 22.5965 98.4713 22.1959C98.5779 22.003 98.8517 21.8146 99.1988 21.8056C99.341 21.8012 99.9588 21.9742 100.124 22.0462C100.139 22.053 100.132 22.0828 100.148 22.0904C101.369 22.2809 100.754 23.3849 100.002 23.1776C99.9879 23.181 99.9242 23.0868 99.9094 23.0899C99.858 23.0998 99.8073 23.105 99.758 23.106ZM100.404 21.3784C100.411 21.3797 100.418 21.3815 100.425 21.3828C101.198 21.5511 101.317 21.0775 101.328 20.6239C101.18 20.3374 100.699 20.2744 100.339 20.1938C100.034 20.1613 99.3317 20.2922 99.1984 20.4536C99.1621 20.4964 99.1357 20.5427 99.12 20.5913C99.1816 21.1536 100.077 21.3057 100.393 21.377C100.397 21.3773 100.401 21.378 100.404 21.3784ZM100.651 19.5805C101.729 19.5068 102.205 19.2947 101.894 18.8812C101.698 18.6375 101.496 18.4672 101.16 18.4107C100.508 18.0153 99.331 18.2922 99.4095 19.0905C99.4095 19.0909 99.686 19.2841 99.686 19.2841C99.6127 19.45 100.193 19.5922 100.651 19.5805ZM98.348 25.3969C97.9769 25.4072 97.5736 25.3551 97.4047 25.1769L98.348 25.3969Z" fill="black"/>
    <path fill-rule="evenodd" clip-rule="evenodd" d="M118.81 22.5917C118.221 21.7895 118.914 20.8853 119.835 21.414C120.624 22.2134 121.391 22.6448 122.005 22.9134C123.335 23.3095 124.332 23.954 125.376 24.6328C125.975 25.1807 125.487 26.711 124.654 25.8574C124.139 25.4367 123.645 25.1821 122.979 25.2417C121.802 25.3143 121.248 25.9496 121.553 27.0553C121.844 27.571 122.385 28.1007 123.097 28.6407C123.705 29.1386 123.304 29.7413 122.719 29.4994C121.765 28.8878 120.984 28.9039 120.323 29.3497C119.926 29.668 120.057 30.3279 120.669 31.299C121.236 32.1272 121.655 32.9786 121.971 33.8466C122.355 34.9715 122.918 36.0919 123.926 37.2028C124.887 37.9871 124.569 38.4483 123.208 38.5247C122.413 38.5836 121.717 38.5035 121.297 38.0327C120.664 37.2627 120.194 36.3407 119.99 35.1726L119.591 31.6687L119.396 30.0261C119.267 29.2345 118.847 29.0012 118.186 29.2297C116.878 29.9654 115.522 30.3646 114.108 30.3581C112.855 30.3971 112.007 29.9918 111.56 28.97C111.44 28.1768 111.467 27.6039 111.957 27.5124C112.541 27.3702 114.037 27.5922 115.901 27.8945C117.329 27.9298 118.153 27.7831 117.569 26.8795C117.034 26.4225 116.534 25.8804 116.083 25.2129C115.459 24.137 116.221 23.4791 116.964 23.781C117.343 23.9575 118.064 24.6523 118.814 25.3904C119.693 26.0322 120.927 25.0467 120.542 24.2384C119.939 23.8413 119.298 23.23 118.808 22.592L118.81 22.5917Z" fill="black"/>
    <path fill-rule="evenodd" clip-rule="evenodd" d="M128.642 39.3087C128.802 40.0163 129.725 40.8725 131.076 41.8128C132.038 42.2099 132.563 41.8333 132.718 41.0569C132.594 39.8384 132.827 39.3132 133.44 39.3156C134.331 39.2964 134.688 39.1131 134.487 38.2821C134.497 37.6959 134.7 37.1833 135.043 36.7735C135.657 36.1567 135.691 35.665 134.668 35.5547C133.875 35.5396 133.019 35.4834 132.119 35.5797C131.595 35.6098 131.386 35.9429 131.569 36.6361C131.864 37.6966 131.561 38.3537 130.867 38.2986C129.815 38.2465 128.578 38.3534 128.643 39.3087H128.642Z" fill="black"/>
    <path fill-rule="evenodd" clip-rule="evenodd" d="M132.915 43.1888C132.421 43.6147 132.416 44.2582 132.802 44.8661C133.715 47.0453 134.695 49.1899 135.687 51.328C135.87 51.8489 136.333 52.1915 137.437 52.0349L139.103 51.6765C139.983 51.2283 139.675 50.8946 138.927 50.7198C138.495 50.5478 137.82 49.9109 137.058 49.1063C136.293 48.298 135.813 47.489 135.44 46.3532C135.199 46.0373 135.004 45.649 134.84 45.2115C134.736 43.8752 134.912 42.9856 135.425 42.6358C136.378 42.0386 137.323 41.967 138.259 42.5286C138.671 42.7735 138.704 43.4068 138.449 44.1047L137.972 44.6636C137.515 45.2149 137.67 45.4548 138.435 45.3821L139.931 45.4263C141.082 45.5846 141.135 46.542 140.404 46.8682L139.227 47.2684C138.137 47.9054 138.572 48.5937 140.019 48.6407C141.009 48.5184 141.855 48.139 142.557 47.5034C143.168 46.9555 143.267 46.3199 142.239 45.4455C141.522 44.7373 141.452 44.0311 141.974 43.5383C142.514 42.9713 142.712 42.6358 142.107 42.571L140.967 42.5244C139.914 42.4035 139.228 42.0478 139.079 41.3495L139.075 40.4878C139.183 39.8816 137.897 39.3961 136.71 39.2673C136.352 39.2282 136.053 39.221 136.041 39.688C135.816 41.0319 134.762 41.9478 132.915 43.1885L132.915 43.1888Z" fill="black"/>
    <path fill-rule="evenodd" clip-rule="evenodd" d="M147.891 56.3183C148.169 55.5302 148.646 55.4405 149.042 55.9575C149.497 57.667 150.123 59.2445 151.057 60.3105C151.461 60.6737 151.702 60.967 151.847 61.3538C152.198 62.3969 151.912 62.869 150.99 62.7697C150.449 62.0076 149.893 61.2754 149.311 60.586C148.667 59.6677 148.295 58.7251 148.087 57.5926L147.891 56.3187L147.891 56.3183Z" fill="black"/>
    <path fill-rule="evenodd" clip-rule="evenodd" d="M145.4 59.8493C145.159 60.3951 145.901 61.0225 146.177 61.0516C146.698 61.1363 147.057 61.0852 147.529 60.5277C147.747 60.0134 147.332 59.0126 146.797 59.0557C146.303 59.3717 145.67 59.3836 145.4 59.8493Z" fill="black"/>
    <path fill-rule="evenodd" clip-rule="evenodd" d="M147.837 64.5991C147.81 64.1495 148.061 63.9234 148.393 64.145C148.636 64.4061 149.567 64.6576 149.395 65.0976C149.22 65.5458 148.926 65.7243 148.256 65.5742C147.887 65.4259 147.898 65.0226 147.838 64.5991H147.837Z" fill="black"/>
    <path fill-rule="evenodd" clip-rule="evenodd" d="M143.816 54.6657C143.144 55.3606 142.306 55.888 141.336 56.0918C140.036 56.2046 139.513 56.5935 140.126 57.3857C141.154 58.8895 141.908 60.5408 142.275 62.4688L143.004 66.1358C143.036 67.0209 143.596 67.907 144.535 68.4877C145.076 68.7879 145.636 69.0236 146.22 69.0815C147.123 69.1535 147.456 68.6817 146.985 67.9988C145.41 66.5251 144.285 65.1394 144.258 63.8072C144.167 61.8301 143.175 59.7348 142.424 58.6857C142.255 58.1292 142.502 57.0759 142.849 56.9567C143.705 56.6997 144.366 56.2738 144.792 55.6437C144.984 54.7326 144.501 54.1761 143.816 54.6664L143.816 54.6657Z" fill="black"/>
    <path fill-rule="evenodd" clip-rule="evenodd" d="M154.215 74.0266C154.271 74.3251 154.686 74.5642 155.081 74.6674C155.252 74.7119 155.223 74.8962 155.302 74.9853C155.827 74.9545 156.052 74.7678 155.819 74.2079C155.648 73.8731 155.403 73.4989 155.04 73.3937C154.559 73.3389 154.205 73.4869 154.215 74.027V74.0266Z" fill="black"/>
    <path fill-rule="evenodd" clip-rule="evenodd" d="M155.261 78.8648C155.023 78.0911 155.175 77.8841 155.609 77.8714C156.147 77.9341 156.569 78.176 156.761 78.4584C157.046 78.9086 156.685 79.365 156.174 79.3924C155.78 79.2465 155.389 79.1478 155.261 78.8648Z" fill="black"/>
    <path fill-rule="evenodd" clip-rule="evenodd" d="M155.533 82.1994C155.419 82.7072 155.731 83.0769 156.097 83.057C156.44 83.0426 156.799 82.7723 157.044 82.3998C157.23 81.9702 156.945 81.7019 156.32 81.6186C155.976 81.6745 155.676 81.8047 155.533 82.1994Z" fill="black"/>
    <path fill-rule="evenodd" clip-rule="evenodd" d="M156.847 74.2689C157.13 73.3341 157.49 73.3105 157.892 73.797C158.425 74.6862 158.726 75.6593 159.144 76.5906C159.548 77.3307 160.497 77.474 160.043 78.2134C159.804 78.4992 159.695 78.7322 159.361 79.0827C159.34 80.0986 159.44 80.9152 159.417 81.8715C159.031 83.1674 158.414 83.412 157.828 82.3988C157.704 81.1033 157.751 79.733 157.802 78.3141C157.298 77.0779 156.941 75.7525 156.846 74.2685L156.847 74.2689Z" fill="black"/>
    <path fill-rule="evenodd" clip-rule="evenodd" d="M151.791 75.1775C151.957 74.2517 152.693 74.2407 153.094 74.9068C153.278 75.772 153.733 76.9473 153.856 78.2195C153.911 79.303 154.033 80.4125 154.089 81.4959C154.156 82.4581 153.697 82.5475 153.161 82.6739C151.632 83.1581 150.895 83.524 150.74 83.9496C150.458 84.576 150.459 85.3291 150.568 86.2231C150.598 87.6276 150.123 88.3081 148.667 87.2616C148.12 86.7453 148.061 85.9304 148.465 84.9238C148.768 84.0764 149.302 83.4908 150.028 83.1033C150.929 82.6602 151.913 82.2895 152.666 81.731C153.315 81.2503 153.076 79.6621 152.896 78.6211C152.694 77.4489 151.766 76.714 151.791 75.1775H151.791Z" fill="black"/>
    <path fill-rule="evenodd" clip-rule="evenodd" d="M150.595 81.0885C150.448 80.9138 150.545 80.5557 150.787 80.4194C151.091 80.3354 151.323 80.43 151.483 80.7027C151.651 80.9919 151.665 81.1536 151.295 81.3315C151.005 81.3788 150.83 81.3339 150.595 81.0885Z" fill="black"/>
    <path fill-rule="evenodd" clip-rule="evenodd" d="M149.977 74.3127C150.484 74.6098 150.427 74.9723 150.032 75.1916C149.65 75.4691 149.201 75.4551 148.733 75.5918C148.488 75.6881 148.279 76.4131 148.517 76.8116C148.711 77.1776 149.199 77.3424 149.506 77.5898C149.858 77.9424 149.443 78.3895 149.184 78.6037C148.828 79.1982 148.851 79.7289 148.858 80.3693C148.838 80.8466 148.3 80.9922 147.768 80.8973C147.057 80.7699 146.709 81.168 146.631 82.0267C146.595 82.4639 146.558 82.7483 146.562 83.1848C146.584 83.916 145.918 84.4646 145.052 83.45C144.886 83.0646 144.884 82.5232 145.458 81.7471C145.76 81.4274 145.915 81.215 145.992 80.7089C146.138 79.8225 145.978 79.0498 145.37 79.045L143.583 79.0679C143.128 79.0234 143.143 78.8062 143.556 78.4875C143.825 78.2319 144.299 77.9108 144.676 77.7063C145.4 77.3938 145.306 76.8257 144.648 76.3412C144.115 75.7354 143.661 75.0549 143.478 74.2877C143.172 73.2419 143.419 73.0919 144.121 73.3115C144.798 73.7552 145.421 74.5515 145.956 75.917C146.487 76.6807 146.976 76.3446 146.985 75.8783C146.9 74.8178 147.337 74.3747 148.021 74.1774C148.601 73.9612 149.416 74.0382 149.977 74.3124L149.977 74.3127Z" fill="black"/>
    <path fill-rule="evenodd" clip-rule="evenodd" d="M15.5664 80.5211C15.11 80.308 14.7739 79.7998 15.2471 79.1759C15.687 78.7938 16.1119 78.8295 16.5197 79.021C16.8202 79.3133 17.0792 79.4497 17.5058 79.3592C17.797 79.3064 18.0259 79.1331 18.3117 78.9936C19.0713 78.6225 19.597 77.4956 19.8406 76.9542C20.6191 75.8313 20.5917 75.6922 21.0964 74.4868C21.4867 73.2742 21.7227 72.3415 22.3494 71.2789C22.7928 70.6467 23.2105 70.6228 23.5679 70.9126C24.1819 71.2361 24.6198 72.1907 24.1339 73.9862C23.5693 75.5586 22.4461 77.1954 20.6739 78.9076C19.6086 79.658 19.3359 80.4009 19.7758 81.156C20.6239 82.6106 21.6844 83.915 22.873 85.3377C23.559 86.1936 23.8718 86.9008 23.2972 87.4388C23.0197 87.7564 22.6359 87.6338 22.3611 87.2366C22.2436 86.4907 22.2059 86.2108 21.4383 85.7386C20.9007 85.3726 20.3333 84.7507 19.8725 84.1162C18.7287 82.54 17.0312 81.0601 15.5664 80.5211Z" fill="black"/>
    <path fill-rule="evenodd" clip-rule="evenodd" d="M16.8325 62.4387C16.9504 61.6872 17.0384 61.1376 16.7588 60.7539L16.1301 60.0542C15.6391 59.5817 15.8344 59.0948 16.4624 58.9454C17.7107 58.8265 18.3843 58.3958 18.447 57.3641C18.8788 56.256 19.3667 55.2544 19.7258 53.6474C19.819 52.9782 19.991 52.6191 20.2404 52.1826C20.5971 51.5247 21.2372 51.6652 21.39 52.0651C21.6295 52.6589 22.1689 53.1221 22.8014 53.5086C23.255 54.0157 23.2629 54.3118 22.725 54.5328L21.5391 54.749C20.8353 54.882 20.4214 55.2911 20.1805 55.7153C19.168 57.9548 18.31 60.2279 17.6946 62.8464C17.5702 63.973 17.5651 64.6148 18.2812 65.0215C18.6317 65.2771 19.5641 65.5896 19.6854 65.9552C19.9742 66.4346 19.6956 66.6501 19.0696 66.6772C18.2031 66.754 16.9168 66.6447 16.5313 66.192C15.9553 65.6256 15.8806 65.1946 16.1828 64.4401C16.5597 64.0762 16.7852 63.369 16.8328 62.439L16.8325 62.4387Z" fill="black"/>
    <path fill-rule="evenodd" clip-rule="evenodd" d="M21.4133 56.9769C22.0359 56.602 22.6876 57.0276 22.3347 57.6111C22.393 58.0699 22.1322 58.6901 21.7269 59.384C21.3911 59.8291 21.2475 60.6343 21.2352 61.6862C21.3147 62.3297 21.0745 62.6179 20.6893 62.7447C20.3323 62.9266 20.0866 62.7351 19.8505 62.2653C19.9759 61.9 20.0475 61.5755 19.9985 61.3412C19.9074 61.0455 19.955 60.6137 20.2045 59.9829C20.4865 59.3353 20.5509 58.8724 20.5848 58.3632C20.6228 57.5865 21.1344 56.9505 21.413 56.9769H21.4133Z" fill="black"/>
    <path fill-rule="evenodd" clip-rule="evenodd" d="M23.5877 57.5799C23.2194 58.0408 23.0279 58.9492 23.279 59.8798C23.4589 60.8484 23.1409 62.1269 22.469 63.2706C22.1791 63.7592 22.002 64.3852 21.8752 65.0736C21.8563 65.6057 22.4467 65.9141 23.0371 65.5766C23.3205 65.2994 23.5662 65.0065 23.7642 64.5943C24.4169 64.1749 24.8987 64.2245 25.2705 64.8879C25.5607 65.9504 25.6662 67.1305 25.6878 68.3644C25.7324 68.9291 25.929 69.2268 26.2779 69.2573C27.1167 69.5109 27.4757 69.2741 27.3555 68.5463C27.3592 67.3882 27.2921 66.1924 27.0687 64.9139C27.0488 64.2581 26.7425 63.6537 25.8077 63.1627C25.6532 62.9687 25.2856 62.7964 24.7058 62.6453C24.014 62.1762 23.7388 61.6204 24.3803 60.8728C25.1252 60.6137 25.7046 60.6682 26.2093 60.8652C27.3822 61.5252 28.183 61.4546 28.7298 60.8841C29.0259 60.1241 29.5782 59.3089 30.5058 58.4129C31.0735 57.6574 31.4806 57.1578 31.7869 56.6445C32.4105 56.024 32.3413 54.9395 31.9908 54.1182C31.4583 52.9861 30.7867 52.8727 30.3214 53.9928C30.3039 54.8066 29.2445 56.724 29.3874 57.6361C29.1119 58.9536 28.416 59.8246 27.1012 59.8671C26.6181 59.8147 26.1411 59.6793 25.6539 59.2294C25.2643 59.0173 24.9299 58.7463 24.8829 58.3554C24.847 57.8894 24.8668 57.617 24.7531 57.4487C24.3607 56.9933 24.0181 56.9827 23.5881 57.5799H23.5877Z" fill="black"/>
    <path fill-rule="evenodd" clip-rule="evenodd" d="M28.1247 40.5854C27.9877 39.6383 28.317 38.9263 29.2243 38.8547C30.5729 38.7022 31.6516 38.5761 32.8769 38.3428C34.7556 37.9837 36.1694 37.4776 36.9026 36.7567C37.579 36.2043 38.374 35.7651 39.0133 35.7476C39.4824 35.7102 39.9279 35.7699 40.3572 35.8966C40.9637 36.0481 40.8993 36.6265 40.5295 37.3991C39.9169 38.202 38.4031 38.6436 36.4805 38.9215C34.6909 38.8852 33.177 39.074 31.4196 39.5044C30.6332 39.5551 30.1439 39.9087 30.1566 40.8208C30.1049 41.2467 30.0782 42.019 30.1923 42.8195C30.2885 43.3451 30.5627 43.4808 30.9584 43.3499C31.262 43.2419 31.5269 43.1052 31.7366 42.9281C32.8001 42.0194 33.7246 40.129 34.1642 40.1287C35.2206 39.9121 35.4971 40.1468 35.113 40.8516C34.4318 41.4012 34.0587 41.8457 33.7969 42.252C32.8923 43.552 34.7114 44.8298 35.0609 43.4119C35.4652 42.5707 35.9497 42.1102 36.4151 42.188C37.4307 42.1115 37.7168 42.4035 37.3793 42.9928C36.7132 43.6243 36.3273 44.214 36.1334 44.7753C35.8682 45.5407 36.0268 46.2617 36.8067 46.9189C37.3608 47.2005 37.7754 47.5428 38.0947 47.9273C38.5761 48.7143 37.6119 48.995 36.6429 48.495C36.1721 48.1531 35.5506 47.7984 34.709 47.425C34.2136 47.3818 33.8915 46.9843 33.8024 46.3929C33.7541 46.0633 33.726 45.6175 33.8712 45.181C33.8603 44.6982 33.4083 44.3744 32.794 44.5728C32.1608 44.8668 32.0724 44.9898 31.371 45.1152C30.6264 45.2769 30.085 45.772 29.851 46.6077C29.8863 48.2425 29.8123 49.7258 29.6779 51.1245C29.546 51.8999 28.8306 52.1192 27.8002 51.3859C27.3716 50.7507 27.3103 50.1384 27.8256 49.4976C28.2525 48.6085 28.4941 47.7035 28.5503 46.7828C28.5109 44.7105 28.4924 42.656 28.1254 40.5854H28.1247Z" fill="black"/>
    <path fill-rule="evenodd" clip-rule="evenodd" d="M44.3052 28.0394C44.5505 27.4274 44.4323 27.0283 44.3559 26.4845C44.2205 26.2206 44.0848 25.8807 43.9495 25.6176C43.8224 24.0966 44.2712 23.5699 45.2957 23.8838C45.8885 24.2323 46.4049 24.6575 46.9977 25.0056C47.6751 25.303 48.4457 25.2266 49.2584 24.9803C50.2326 24.088 52.2477 23.2211 53.3229 22.3799C53.9414 21.7258 54.3899 21.8872 54.6692 22.8644C54.6311 24.3196 54.1908 24.9272 53.4757 24.9549C52.6835 24.8189 52.0401 24.8103 51.7228 25.0824C50.1956 25.8811 48.4803 26.4759 48.4714 27.1472C48.1239 28.6175 48.7339 29.1273 50.3508 28.8299C51.4771 28.7024 52.2477 27.4278 53.1708 27.3767C54.2083 27.2493 54.4536 27.5892 54.3899 28.3454C54.2775 30.0004 54.5277 30.7268 55.0252 30.8183C56.0233 31.4045 55.6121 32.4835 54.5424 33.1637C53.7207 33.741 52.0106 34.1152 51.24 34.7443C51.3626 35.4752 49.5504 36.8941 48.8267 36.5285C48.0818 36.2561 47.5648 35.5625 46.972 35.5855C46.4512 35.581 45.6638 34.8755 45.3718 34.438C45.0922 33.6307 45.1258 33.0698 45.5243 32.8063C45.9475 32.2711 46.4556 31.7102 47.1502 31.1746C47.5099 29.8277 47.0189 28.9101 45.7528 29.2119C44.6732 29.2884 43.894 31.6334 43.0857 31.9397C42.7468 32.9934 42.2215 33.6989 41.4091 33.3929C40.3294 32.5771 40.3377 31.472 41.2059 30.6905C42.2136 29.1013 43.7038 29.1691 44.3052 28.0391V28.0394ZM47.8769 33.2997C48.3638 31.4988 50.5835 30.1967 52.3327 30.6397C53.2386 30.6312 53.4332 31.8719 52.4598 32.2204C51.7063 32.5154 50.4933 33.4035 50.0106 34.0391C48.5834 34.8934 47.2536 34.2475 47.8769 33.2997Z" fill="black"/>
    <path fill-rule="evenodd" clip-rule="evenodd" d="M66.4819 16.411C64.8245 16.9911 64.9256 17.6552 66.5874 17.5027C67.4458 17.5997 68.189 17.6151 68.8534 17.574C69.9515 17.4986 69.9361 18.6482 69.1593 19.0916C67.2669 20.5231 65.2566 21.0405 63.1401 21.0727C62.1543 21.0217 61.4203 21.1245 60.8896 21.6155C60.6312 21.855 60.2108 21.9513 59.8843 22.075C59.2863 22.114 58.7737 23.1752 59.7314 23.707C61.0698 24.4649 62.194 24.246 63.0064 22.5996C63.1065 21.2876 65.836 21.6446 66.8444 21.5038C68.3151 21.5326 68.2099 21.5984 68.2421 22.4731C68.105 22.9319 68.055 24.5664 68.2938 24.983C68.6323 25.5737 69.221 26.0973 69.7504 26.0959C70.5765 25.8592 72.3288 26.1973 73.1594 25.8112C73.5037 25.622 73.8474 25.4661 74.1897 25.3431C75.549 24.798 75.3427 23.3404 74.4258 21.4685C73.7128 20.9665 73.8604 20.1579 74.5214 19.8786C75.2684 19.4979 76.26 19.4935 77.2578 19.5846C77.8834 19.6693 78.3155 19.5822 78.5547 19.3239C79.0087 18.9182 79.155 18.4412 78.6236 17.808C78.3721 17.353 77.78 17.2529 76.8473 17.5075C75.6573 17.9944 74.2493 18.2377 72.4083 18.3741C71.4647 18.4213 71.3516 17.182 72.0071 16.8195C72.2562 16.5032 72.8901 16.5964 73.331 16.4847C74.5557 15.8734 74.5207 15.3581 73.2272 14.939C72.8757 14.8129 72.3573 14.7232 71.8697 14.7256C71.1823 14.6269 70.643 14.4206 70.4353 13.7384C69.8991 13.134 69.4735 12.989 69.2913 13.8549C69.1936 15.2913 68.0704 16.0132 66.4819 16.411ZM69.9111 21.5617C70.519 20.6962 71.6754 20.7133 72.6211 21.3167C73.6734 22.359 73.7066 23.2061 72.7208 23.8581C71.9324 23.9678 71.1806 23.9462 70.4662 23.7927C69.4619 23.6388 69.3673 22.3505 69.9111 21.5617Z" fill="black"/>
    <path fill-rule="evenodd" clip-rule="evenodd" d="M59.9 17.8635C60.4527 17.1453 61.3004 16.8722 62.351 16.9031C63.5567 17.3403 63.7668 17.9338 62.9811 18.6831C62.3897 19.1594 61.6427 19.4171 60.7402 19.4565C59.5889 19.3938 59.3086 18.8627 59.9 17.8635Z" fill="black"/>
    <path fill-rule="evenodd" clip-rule="evenodd" d="M62.4915 26.0822C63.2066 25.337 63.5269 24.9964 64.4524 24.4978C65.6921 23.5724 66.497 24.7987 65.7915 25.7663C65.6414 26.1538 65.026 27.1677 64.4476 27.6982C64.0286 28.0819 63.4049 28.4215 62.9071 27.9596C61.8785 27.4244 62.022 26.4509 62.4918 26.0822H62.4915Z" fill="black"/>
    <path fill-rule="evenodd" clip-rule="evenodd" d="M84.994 -0.000335693C131.807 -0.000335693 169.988 38.1807 169.988 84.994C169.988 131.807 131.807 169.988 84.994 169.988C38.1811 169.988 3.05176e-05 131.807 3.05176e-05 84.994C3.05176e-05 38.1807 38.1811 -0.000335693 84.994 -0.000335693ZM84.994 3.26337C130.01 3.26337 166.725 39.9786 166.725 84.994C166.725 130.01 130.01 166.724 84.994 166.724C39.9782 166.724 3.26373 130.009 3.26373 84.994C3.26373 39.9782 39.9786 3.26337 84.994 3.26337Z" fill="#C82227"/>
    <path fill-rule="evenodd" clip-rule="evenodd" d="M84.9941 28.7634C115.965 28.7634 141.225 54.0233 141.225 84.994C141.225 115.965 115.964 141.224 84.9941 141.224C54.0233 141.224 28.7635 115.964 28.7635 84.994C28.7635 54.0229 54.0237 28.7634 84.9941 28.7634ZM84.9941 31.5556C114.427 31.5556 138.432 55.5611 138.432 84.994C138.432 114.427 114.427 138.432 84.9941 138.432C55.5615 138.432 31.5557 114.427 31.5557 84.994C31.5557 55.5611 55.5615 31.5556 84.9941 31.5556Z" fill="#C82227"/>
    <path fill-rule="evenodd" clip-rule="evenodd" d="M84.994 34.1299C113.009 34.1299 135.858 56.9789 135.858 84.994C135.858 113.009 113.009 135.858 84.994 135.858C56.979 135.858 34.13 113.009 34.13 84.994C34.13 56.9789 56.979 34.1299 84.994 34.1299ZM84.994 35.3234C112.457 35.3234 134.856 57.6361 134.856 84.994C134.856 112.351 112.457 134.664 84.994 134.664C57.5313 134.664 35.1322 112.352 35.1322 84.994C35.1322 57.6361 57.5313 35.3234 84.994 35.3234Z" fill="#C82227"/>
    </svg>
    